SplineFontDB: 3.0
FontName: NeutonCursiveItalic
FullName: NeutonCursiveItalic
FamilyName: NeutonCursive
Weight: Italic
Copyright: Created by Brian M Zick, with FontForge 2.0 (http://fontforge.sf.net)
UComments: "2010-5-9: Created." 
Version: 1.0
ItalicAngle: -7
UnderlinePosition: -220
UnderlineWidth: 110
Ascent: 1580
Descent: 468
LayerCount: 3
Layer: 0 0 "Back"  1
Layer: 1 0 "Fore"  0
Layer: 2 0 "Board"  0
NeedsXUIDChange: 1
XUID: [1021 453 1782528420 15912843]
FSType: 0
OS2Version: 0
OS2_WeightWidthSlopeOnly: 0
OS2_UseTypoMetrics: 1
CreationTime: 1273463161
ModificationTime: 1290658925
PfmFamily: 17
TTFWeight: 500
TTFWidth: 5
LineGap: 184
VLineGap: 184
OS2TypoAscent: 0
OS2TypoAOffset: 1
OS2TypoDescent: 0
OS2TypoDOffset: 1
OS2TypoLinegap: 184
OS2WinAscent: 0
OS2WinAOffset: 1
OS2WinDescent: 0
OS2WinDOffset: 1
HheadAscent: 0
HheadAOffset: 1
HheadDescent: 0
HheadDOffset: 1
OS2Vendor: 'PfEd'
Lookup: 4 0 1 "'liga' Standard Ligatures in Latin lookup 0"  {"'liga' Standard Ligatures in Latin lookup 0-1"  "'liga' Standard Ligatures in Latin lookup 0-2"  } ['liga' ('DFLT' <'dflt' > 'latn' <'dflt' > ) ]
MarkAttachClasses: 1
DEI: 91125
LangName: 1033 
Encoding: UnicodeBmp
UnicodeInterp: none
NameList: Adobe Glyph List
DisplaySize: -24
AntiAlias: 1
FitToEm: 1
WinInfo: 114 19 4
BeginPrivate: 3
BlueValues 37 [-42 0 1064 1094 1288 1364 1506 1542]
OtherBlues 11 [-460 -442]
BlueFuzz 1 1
EndPrivate
Grid
-2048 1504 m 0
 4096 1504 l 0
  Named: "cap" 
-2048 1080 m 0
 4096 1080 l 0
  Named: "x" 
EndSplineSet
BeginChars: 65536 418

StartChar: A
Encoding: 65 65 0
Width: 1284
VWidth: 0
Flags: HMW
LayerCount: 3
Fore
SplineSet
516 632 m 1
 874 632 l 1
 780 1240 l 1
 516 632 l 1
934 1524 m 1
 1158 150 l 1
 1288 98 l 1
 1268 0 l 1
 752 0 l 1
 774 90 l 1
 954 156 l 1
 896 510 l 1
 466 510 l 1
 310 150 l 1
 490 98 l 1
 468 0 l 1
 10 0 l 1
 30 90 l 1
 174 156 l 1
 778 1486 l 1
 808 1514 858 1526 900 1526 c 0
 914 1526 924 1526 934 1524 c 1
EndSplineSet
EndChar

StartChar: B
Encoding: 66 66 1
Width: 1140
VWidth: 2214
Flags: HMW
LayerCount: 3
Fore
SplineSet
568 1392 m 1
 500 834 l 1
 708 834 l 2
 822 834 902 932 922 1102 c 0
 940 1252 894 1402 650 1402 c 0
 626 1402 596 1398 568 1392 c 1
870 824 m 1
 870 814 l 1
 1074 800 1164 628 1144 468 c 0
 1116 240 918 0 512 0 c 2
 26 0 l 1
 46 90 l 1
 222 146 l 1
 370 1338 l 1
 200 1374 l 1
 222 1466 l 1
 372 1492 546 1522 724 1522 c 0
 1036 1522 1142 1352 1120 1170 c 0
 1104 1044 1036 894 870 824 c 1
712 732 m 2
 488 732 l 1
 412 116 l 1
 632 116 l 2
 806 116 922 272 942 428 c 1
 960 578 888 732 712 732 c 2
EndSplineSet
EndChar

StartChar: C
Encoding: 67 67 2
Width: 1116
VWidth: 0
Flags: HMW
LayerCount: 3
Fore
SplineSet
368 798 m 0
 312 334 510 128 750 128 c 0
 866 128 996 178 1110 276 c 1
 1126 258 1140 232 1146 202 c 1
 990 44 812 -30 648 -30 c 0
 340 -30 82 230 142 714 c 0
 186 1072 430 1538 890 1538 c 0
 1022 1538 1146 1504 1232 1416 c 1
 1160 1046 l 1
 1082 1060 l 1
 1078 1296 l 1
 1040 1368 948 1422 818 1422 c 0
 608 1422 416 1188 368 798 c 0
EndSplineSet
EndChar

StartChar: D
Encoding: 68 68 3
Width: 1332
VWidth: 0
Flags: HMW
LayerCount: 3
Fore
SplineSet
1394 798 m 0
 1346 404 1030 0 534 0 c 2
 20 0 l 1
 44 90 l 1
 226 156 l 1
 370 1338 l 1
 202 1374 l 1
 222 1466 l 1
 424 1504 600 1526 746 1526 c 0
 1310 1526 1440 1172 1394 798 c 0
570 1394 m 1
 414 126 l 1
 626 126 l 2
 956 126 1132 414 1170 724 c 0
 1216 1096 1070 1402 694 1402 c 0
 652 1402 612 1400 570 1394 c 1
EndSplineSet
EndChar

StartChar: E
Encoding: 69 69 4
Width: 1082
VWidth: 0
Flags: HMW
LayerCount: 3
Fore
SplineSet
222 1506 m 1
 1222 1506 l 1
 1144 1124 l 1
 1058 1140 l 1
 1048 1396 l 1
 576 1396 l 1
 506 824 l 1
 798 824 l 1
 858 972 l 1
 954 980 l 1
 864 514 l 1
 776 496 l 1
 768 710 l 1
 492 710 l 1
 418 116 l 1
 918 116 l 1
 1052 398 l 1
 1132 380 l 1
 1054 0 l 1
 34 0 l 1
 54 90 l 1
 228 146 l 1
 378 1364 l 1
 200 1414 l 1
 222 1506 l 1
EndSplineSet
EndChar

StartChar: F
Encoding: 70 70 5
Width: 1036
VWidth: 0
Flags: HMW
LayerCount: 3
Fore
SplineSet
222 1506 m 1
 1222 1506 l 1
 1140 1116 l 1
 1054 1136 l 1
 1044 1396 l 1
 576 1396 l 1
 504 812 l 1
 792 812 l 1
 854 960 l 1
 944 970 l 1
 860 500 l 1
 770 482 l 1
 766 700 l 1
 490 700 l 1
 420 148 l 1
 654 102 l 1
 628 0 l 1
 34 0 l 1
 54 90 l 1
 228 146 l 1
 378 1364 l 1
 200 1414 l 1
 222 1506 l 1
EndSplineSet
EndChar

StartChar: G
Encoding: 71 71 6
Width: 1298
VWidth: 0
Flags: HMW
LayerCount: 3
Fore
SplineSet
1306 1368 m 1
 1286 1248 1254 1088 1224 972 c 1
 1144 994 l 1
 1146 1228 l 1
 1116 1292 1028 1406 846 1406 c 0
 648 1406 430 1264 372 788 c 0
 326 414 472 92 784 92 c 0
 888 92 962 138 988 166 c 1
 1024 462 l 1
 792 508 l 1
 816 608 l 1
 1376 608 l 1
 1354 518 l 1
 1222 468 l 1
 1180 124 l 1
 1068 36 870 -38 648 -38 c 0
 242 -38 92 300 142 704 c 0
 208 1238 576 1526 910 1526 c 0
 1104 1526 1216 1456 1306 1368 c 1
EndSplineSet
EndChar

StartChar: H
Encoding: 72 72 7
Width: 1426
VWidth: 0
Flags: HMW
LayerCount: 3
Fore
SplineSet
578 0 m 1
 34 0 l 1
 54 90 l 1
 228 146 l 1
 378 1364 l 1
 200 1414 l 1
 222 1506 l 1
 770 1506 l 1
 748 1414 l 1
 574 1368 l 1
 508 838 l 1
 1140 838 l 1
 1204 1364 l 1
 1026 1414 l 1
 1048 1506 l 1
 1596 1506 l 1
 1574 1414 l 1
 1400 1368 l 1
 1250 138 l 1
 1428 98 l 1
 1406 0 l 1
 858 0 l 1
 882 90 l 1
 1054 146 l 1
 1124 716 l 1
 494 714 l 1
 422 138 l 1
 604 98 l 1
 578 0 l 1
EndSplineSet
EndChar

StartChar: I
Encoding: 73 73 8
Width: 608
VWidth: 0
Flags: HMW
LayerCount: 3
Fore
SplineSet
576 0 m 1
 34 0 l 1
 54 90 l 1
 228 146 l 1
 378 1364 l 1
 200 1414 l 1
 222 1506 l 1
 770 1506 l 1
 748 1414 l 1
 572 1368 l 1
 422 138 l 1
 598 98 l 1
 576 0 l 1
EndSplineSet
EndChar

StartChar: J
Encoding: 74 74 9
Width: 594
VWidth: 0
Flags: HMW
LayerCount: 3
Fore
SplineSet
-28 -394 m 1
 -46 -366 -60 -326 -70 -288 c 1
 108 -110 208 44 232 238 c 2
 372 1364 l 1
 196 1414 l 1
 216 1506 l 1
 764 1506 l 1
 744 1414 l 1
 566 1368 l 1
 454 466 l 2
 392 -30 288 -166 -28 -394 c 1
EndSplineSet
EndChar

StartChar: K
Encoding: 75 75 10
Width: 1236
VWidth: 0
Flags: HMW
LayerCount: 3
Fore
SplineSet
422 150 m 1
 606 98 l 1
 582 0 l 1
 26 0 l 1
 48 90 l 1
 228 156 l 1
 376 1354 l 1
 194 1414 l 1
 218 1506 l 1
 770 1506 l 1
 750 1414 l 1
 570 1358 l 1
 422 150 l 1
732 316 m 2
 594 616 l 1
 594 616 550 702 524 732 c 1
 526 762 l 1
 562 792 614 842 652 892 c 2
 1006 1358 l 1
 850 1414 l 1
 870 1506 l 1
 1370 1506 l 1
 1348 1414 l 1
 1162 1358 l 1
 718 792 l 1
 908 466 l 1
 1032 248 1092 148 1214 100 c 2
 1250 86 l 1
 1228 2 l 1
 1180 -18 1136 -26 1094 -26 c 0
 926 -26 820 124 732 316 c 2
EndSplineSet
EndChar

StartChar: L
Encoding: 76 76 11
Width: 1072
VWidth: 0
Flags: HMW
LayerCount: 3
Fore
SplineSet
778 1506 m 1
 758 1414 l 1
 578 1358 l 1
 426 116 l 1
 870 116 l 1
 1038 422 l 1
 1122 400 l 1
 1034 0 l 1
 40 0 l 1
 60 90 l 1
 234 146 l 1
 382 1354 l 1
 200 1414 l 1
 226 1506 l 1
 778 1506 l 1
EndSplineSet
EndChar

StartChar: M
Encoding: 77 77 12
Width: 1674
VWidth: 0
Flags: HMW
LayerCount: 3
Fore
SplineSet
432 1364 m 1
 254 1414 l 1
 278 1506 l 1
 680 1506 l 1
 730 1272 l 1
 882 374 l 1
 1310 1312 l 1
 1402 1506 l 1
 1800 1506 l 1
 1778 1414 l 1
 1604 1368 l 1
 1506 138 l 1
 1684 98 l 1
 1662 0 l 1
 1124 0 l 1
 1146 90 l 1
 1318 146 l 1
 1394 1216 l 1
 868 62 l 1
 834 42 806 36 776 36 c 0
 766 36 752 36 738 38 c 1
 532 1170 l 1
 340 138 l 1
 522 98 l 1
 496 0 l 1
 14 0 l 1
 38 90 l 1
 210 146 l 1
 432 1364 l 1
EndSplineSet
EndChar

StartChar: N
Encoding: 78 78 13
Width: 1346
VWidth: 0
Flags: HMW
LayerCount: 3
Fore
SplineSet
200 1414 m 1
 222 1506 l 1
 576 1506 l 1
 1078 330 l 1
 1204 1364 l 1
 1024 1414 l 1
 1048 1506 l 1
 1526 1506 l 1
 1500 1414 l 1
 1328 1368 l 1
 1162 22 l 1
 1134 -4 1080 -16 1012 -16 c 0
 1006 -16 996 -16 988 -16 c 1
 480 1164 l 1
 354 138 l 1
 534 98 l 1
 512 0 l 1
 34 0 l 1
 54 90 l 1
 228 146 l 1
 376 1354 l 1
 200 1414 l 1
EndSplineSet
EndChar

StartChar: O
Encoding: 79 79 14
Width: 1348
VWidth: 0
Flags: HMW
LayerCount: 3
Fore
SplineSet
1404 750 m 0
 1352 332 1062 -32 644 -32 c 0
 298 -32 92 312 146 750 c 0
 204 1216 506 1542 906 1542 c 0
 1270 1542 1456 1174 1404 750 c 0
844 1424 m 0
 542 1424 417 1136 378 820 c 0
 335 464 396 96 708 96 c 0
 1014 96 1140 396 1176 694 c 0
 1218 1042 1132 1424 844 1424 c 0
EndSplineSet
EndChar

StartChar: P
Encoding: 80 80 15
Width: 1014
VWidth: 0
Flags: HMW
LayerCount: 3
Fore
SplineSet
1158 1080 m 0
 1122 792 896 594 652 594 c 0
 616 594 576 596 536 602 c 1
 532 632 526 656 532 704 c 1
 550 702 568 704 584 704 c 0
 800 704 917 820 944 1036 c 0
 969 1242 896 1402 676 1402 c 0
 634 1402 568 1394 568 1394 c 1
 416 148 l 1
 648 102 l 1
 622 0 l 1
 26 0 l 1
 46 90 l 1
 222 146 l 1
 370 1338 l 1
 200 1374 l 1
 222 1466 l 1
 354 1490 538 1520 708 1520 c 0
 970 1520 1202 1434 1158 1080 c 0
EndSplineSet
EndChar

StartChar: Q
Encoding: 81 81 16
Width: 1350
VWidth: 0
Flags: HMW
LayerCount: 3
Fore
SplineSet
710 -26 m 1
 700 -30 658 -32 644 -32 c 0
 298 -32 104 298 158 736 c 0
 216 1204 522 1542 920 1542 c 0
 1278 1542 1458 1186 1406 762 c 0
 1362 406 1144 82 828 -8 c 1
 868 -172 942 -276 1224 -334 c 1
 1220 -364 1212 -402 1202 -424 c 1
 1134 -460 1076 -466 1020 -466 c 0
 838 -466 694 -302 710 -26 c 1
848 1414 m 0
 596 1414 418 1200 372 824 c 0
 336 534 392 108 770 82 c 1
 1050 164 1154 408 1188 682 c 0
 1232 1038 1114 1414 848 1414 c 0
EndSplineSet
EndChar

StartChar: R
Encoding: 82 82 17
Width: 1222
VWidth: 0
Flags: HMW
LayerCount: 3
Fore
SplineSet
656 760 m 2
 776 760 906 894 928 1066 c 1
 952 1264 868 1398 690 1398 c 0
 618 1398 568 1390 568 1390 c 1
 490 760 l 1
 656 760 l 2
1144 1134 m 1
 1124 978 1006 808 806 726 c 1
 806 724 l 1
 950 422 l 2
 1044 226 1086 140 1204 94 c 1
 1236 82 l 1
 1210 -2 l 1
 1164 -20 1124 -26 1086 -26 c 0
 926 -26 834 118 770 306 c 2
 652 650 l 1
 478 650 l 1
 416 152 l 1
 598 100 l 1
 576 0 l 1
 26 0 l 1
 46 90 l 1
 222 146 l 1
 368 1334 l 1
 200 1370 l 1
 222 1462 l 1
 374 1490 538 1518 688 1518 c 0
 986 1518 1178 1416 1144 1134 c 1
EndSplineSet
EndChar

StartChar: S
Encoding: 83 83 18
Width: 898
VWidth: 0
Flags: HMW
LayerCount: 3
Back
SplineSet
801.02 345.876 m 4
 801.02 595.524 87.5059 640.668 87.5059 1089.57 c 4
 87.5059 1284.37 251.858 1531.4 574.418 1531.4 c 4
 839.076 1531.4 957.048 1382.75 957.048 1265.21 c 4
 957.048 1191.36 878.946 1112.44 771.06 1098.95 c 5
 729.926 1248.11 642.792 1408.3 494.836 1408.3 c 4
 367.12 1408.3 292.936 1303.85 292.936 1191.11 c 4
 292.936 890.042 1022.91 860.036 1022.91 417.226 c 4
 1022.91 168.381 766.742 -24.6035 519.534 -24.6035 c 4
 220.25 -24.6035 49.0859 122.016 49.0859 266.292 c 4
 49.0859 371.636 161.357 436.684 251.35 447.79 c 5
 307.51 221.27 444.564 120.449 571.676 120.449 c 4
 697.466 120.449 801.02 199.816 801.02 345.876 c 4
EndSplineSet
Fore
SplineSet
870 1068 m 1
 796 1088 l 1
 774 1320 l 1
 762 1370 692 1434 618 1434 c 0
 516 1434 414 1364 394 1206 c 0
 352 858 966 884 910 428 c 0
 876 150 628 -30 396 -30 c 0
 248 -30 110 50 68 148 c 1
 120 472 l 1
 202 456 l 1
 224 226 l 1
 250 148 336 94 434 94 c 0
 540 94 694 168 716 348 c 0
 754 662 154 660 210 1110 c 0
 244 1384 466 1538 664 1538 c 0
 752 1538 854 1506 930 1416 c 1
 928 1406 870 1068 870 1068 c 1
EndSplineSet
Layer: 2
SplineSet
908 1072 m 29
 814 1092 l 29
 754 1324 l 21
 746 1352 642 1434 536 1434 c 7
 414 1434 330 1372 330 1214 c 7
 330 866 1030 838 1030 428 c 31
 1030 144 760 -30 476 -30 c 31
 300 -30 158 36 62 148 c 13
 78 472 l 21
 178 456 l 5
 240 226 l 5
 296 146 398 90 494 90 c 7
 622 90 802 146 802 352 c 7
 802 612 106 668 106 1126 c 7
 106 1410 334 1538 572 1538 c 7
 678 1538 818 1510 928 1412 c 5
 928 1402 908 1072 908 1072 c 29
EndSplineSet
EndChar

StartChar: T
Encoding: 84 84 19
Width: 1126
VWidth: 0
Flags: HMW
LayerCount: 3
Fore
SplineSet
194 1506 m 1
 1312 1506 l 1
 1226 1098 l 1
 1136 1116 l 1
 1128 1396 l 1
 822 1396 l 1
 668 138 l 1
 850 98 l 1
 824 0 l 1
 282 0 l 1
 300 90 l 1
 476 146 l 1
 630 1396 l 1
 334 1396 l 1
 244 1106 l 1
 154 1118 l 1
 194 1506 l 1
EndSplineSet
EndChar

StartChar: U
Encoding: 85 85 20
Width: 1376
VWidth: 0
Flags: HMW
LayerCount: 3
Fore
SplineSet
752 112 m 0
 1054 112 1112 394 1136 582 c 2
 1234 1364 l 1
 1058 1414 l 1
 1078 1506 l 1
 1562 1506 l 1
 1538 1414 l 1
 1366 1368 l 1
 1266 604 l 2
 1205 138 978 -32 670 -32 c 0
 480 -32 202 58 264 568 c 2
 362 1364 l 1
 182 1414 l 1
 208 1506 l 1
 752 1506 l 1
 730 1414 l 1
 556 1368 l 1
 462 598 l 2
 420 252 546 112 752 112 c 0
EndSplineSet
EndChar

StartChar: V
Encoding: 86 86 21
Width: 1288
VWidth: 0
Flags: HMW
LayerCount: 3
Back
SplineSet
690 -18 m 5
 178 1364 l 5
 -6 1414 l 5
 6 1506 l 5
 656 1506 l 5
 644 1414 l 5
 440 1368 l 5
 838 306 l 5
 1222 1364 l 5
 1000 1414 l 5
 1010 1506 l 5
 1570 1506 l 5
 1560 1414 l 5
 1394 1368 l 5
 878 18 l 5
 828 -8 780 -18 730 -18 c 4
 718 -18 702 -18 690 -18 c 5
EndSplineSet
Fore
SplineSet
562 -18 m 1
 312 1364 l 1
 182 1414 l 1
 204 1506 l 1
 732 1506 l 1
 710 1414 l 1
 536 1368 l 1
 720 316 l 1
 1170 1364 l 1
 992 1414 l 1
 1012 1506 l 1
 1466 1506 l 1
 1446 1414 l 1
 1314 1368 l 1
 720 18 l 1
 676 -8 640 -18 598 -18 c 0
 588 -18 572 -18 562 -18 c 1
EndSplineSet
EndChar

StartChar: W
Encoding: 87 87 22
Width: 1854
VWidth: 0
Flags: HMW
LayerCount: 3
Fore
SplineSet
1242 1464 m 1
 1346 348 l 1
 1734 1364 l 1
 1558 1414 l 1
 1580 1506 l 1
 2032 1506 l 1
 2008 1414 l 1
 1880 1368 l 1
 1348 18 l 1
 1304 -8 1260 -18 1218 -18 c 0
 1208 -18 1198 -18 1188 -18 c 1
 1076 1140 l 1
 642 18 l 1
 598 -8 550 -18 508 -18 c 0
 498 -18 486 -18 476 -18 c 1
 316 1364 l 1
 182 1414 l 1
 202 1506 l 1
 718 1506 l 1
 694 1414 l 1
 520 1368 l 1
 636 330 l 1
 1062 1434 l 1
 1108 1460 1160 1468 1208 1468 c 0
 1218 1468 1234 1466 1242 1464 c 1
EndSplineSet
EndChar

StartChar: X
Encoding: 88 88 23
Width: 1210
VWidth: 0
Flags: HMW
LayerCount: 3
Fore
SplineSet
814 788 m 1
 1078 138 l 1
 1214 98 l 1
 1188 0 l 1
 672 0 l 1
 696 90 l 1
 870 146 l 1
 666 632 l 1
 308 138 l 1
 486 98 l 1
 464 0 l 1
 10 0 l 1
 34 90 l 1
 162 146 l 1
 602 736 l 1
 336 1354 l 1
 210 1414 l 1
 234 1506 l 1
 764 1506 l 1
 740 1414 l 1
 560 1358 l 1
 754 900 l 1
 1082 1364 l 1
 902 1414 l 1
 924 1506 l 1
 1380 1506 l 1
 1360 1414 l 1
 1226 1368 l 1
 814 788 l 1
EndSplineSet
EndChar

StartChar: Y
Encoding: 89 89 24
Width: 1220
VWidth: 0
Flags: HMW
LayerCount: 3
Fore
SplineSet
800 640 m 1
 738 138 l 1
 898 98 l 1
 876 0 l 1
 366 0 l 1
 388 90 l 1
 546 146 l 1
 602 612 l 1
 340 1364 l 1
 208 1414 l 1
 232 1506 l 1
 742 1506 l 1
 720 1414 l 1
 554 1368 l 1
 760 776 l 1
 1098 1364 l 1
 920 1414 l 1
 942 1506 l 1
 1388 1506 l 1
 1366 1414 l 1
 1236 1368 l 1
 800 640 l 1
EndSplineSet
EndChar

StartChar: Z
Encoding: 90 90 25
Width: 1014
VWidth: 0
Flags: HMW
LayerCount: 3
Fore
SplineSet
246 1506 m 1
 1178 1506 l 1
 1168 1414 l 1
 240 122 l 1
 816 122 l 1
 982 412 l 1
 1064 392 l 1
 958 0 l 1
 18 0 l 1
 24 126 l 1
 928 1392 l 1
 390 1392 l 1
 274 1094 l 1
 188 1116 l 1
 190 1126 246 1506 246 1506 c 1
EndSplineSet
EndChar

StartChar: a
Encoding: 97 97 26
Width: 1038
VWidth: 0
Flags: HMW
LayerCount: 3
Back
SplineSet
734.004 -344 m 1
 898.668 -382 l 1
 878.168 -468 l 1
 326.17 -468 l 1
 348.598 -378 l 1
 553.9 -338 l 1
 638.798 298 l 1
 622.798 298 l 1
 589.034 170 441.31 -30 278.524 -30 c 3
 134.469 -30 81.3574 126.816 81.3574 264 c 0
 81.3574 628 321.88 1064 589.428 1064 c 3
 659.882 1064 693.778 1044 722.336 1012 c 1
 734.336 1012 l 1
 770.834 1098 l 1
 802.834 1098 l 1
 881.254 1074 l 1
 803.576 368 l 1
 734.004 -344 l 1
269.542 368 m 0x70
 269.542 269.614 275.648 128 343.766 128 c 3
 491.886 128 654.076 454 681.618 824 c 1
 656.85 868 596.124 938 531.626 938 c 3
 339.626 938 269.542 604 269.542 368 c 0x70
EndSplineSet
Fore
SplineSet
828 1098 m 1
 900 1064 l 1
 826 592 l 1
 788 306 l 2
 770 166 784 148 832 148 c 0
 880 148 970 248 1018 332 c 1
 1066 288 l 1
 1008 104 904 -28 692 -28 c 0
 592 -28 558 108 628 300 c 1
 612 300 l 1
 576 172 424 -28 262 -28 c 0
 118 -28 70 112 70 264 c 0
 70 564 296 1066 592 1066 c 0
 646 1066 702 1042 724 1012 c 1
 736 1012 l 1
 794 1098 l 1
 828 1098 l 1
260 368 m 0
 260 232 262 130 330 130 c 0
 478 130 682 462 676 832 c 1
 652 876 596 940 532 940 c 0
 340 940 260 584 260 368 c 0
EndSplineSet
Layer: 2
SplineSet
654 666 m 5
 574 318 470 212 356 212 c 4
 316 212 292 226 292 308 c 4
 292 325.846 296.44 401.946 307.678 494 c 6
 336 726 l 6
 360 926 404.05 1110 244 1110 c 4
 47.959 1110 -58 994 -122 822 c 5
 -72 786 l 5
 -12 890 79.5938 936 124 936 c 4
 164.051 936 169.967 888.766 156 776 c 6
 102 340 l 6
 96 296 92 220 92 186 c 4
 92 64 162 0 272 0 c 4
 424 0 578 188 646 396 c 5
 660 392 l 5
 640 246 540 -30 706 -30 c 20
 870.78 -30 1010 150 1066 298 c 5
 1010 342 l 5
 962 258 876.748 154 844 154 c 4
 797.958 154 792 204 804 334 c 6
 828 614 l 5
 928 1068 l 5
 900 1110 l 5
 724 1138 664 1038 654 666 c 5
EndSplineSet
EndChar

StartChar: b
Encoding: 98 98 27
Width: 1070
VWidth: 0
Flags: HMW
LayerCount: 3
Back
SplineSet
300 1380 m 17
 136 1412 l 1
 148 1500 l 1
 496 1528 l 1
 516 1502 l 1
 440 1006 l 1
 364 692 l 1
 378 688 l 1
 446 896 600 1084 752 1084 c 3
 862 1084 932 1020 932 898 c 3
 932 864 928 788 922 744 c 2
 868 308 l 2
 854 196 860 148 900 148 c 3
 944 148 1036 194 1096 298 c 1
 1146 262 l 1
 1082 90 976 -26 780 -26 c 3
 620 -26 664 158 688 358 c 2
 716 590 l 2
 728 682 732 758 732 776 c 3
 732 858 708 872 668 872 c 3
 554 872 450 766 370 418 c 1
 360 46 300 -54 124 -26 c 1
 96 16 l 1
 192 532 l 9
 300 1380 l 17
EndSplineSet
Fore
SplineSet
796 608 m 0
 796 758 762 920 648 920 c 0
 542 920 398 680 350 300 c 1
 336 186 l 1
 370 136 446 106 532 106 c 0
 642 106 796 206 796 608 c 0
498 1502 m 1
 438 1020 l 1
 378 714 l 1
 390 714 l 1
 438 912 576 1078 726 1078 c 0
 892 1078 1000 888 1000 646 c 0
 1000 270 766 -28 418 -28 c 0
 330 -28 204 -2 134 60 c 1
 294 1380 l 1
 130 1412 l 1
 142 1500 l 1
 478 1528 l 1
 498 1502 l 1
EndSplineSet
EndChar

StartChar: c
Encoding: 99 99 28
Width: 760
VWidth: 0
Flags: HMW
LayerCount: 3
Fore
SplineSet
636 768 m 1
 634 818 616 962 506 962 c 0
 352 962 264 744 264 472 c 0
 264 276 304 118 486 118 c 0
 566 118 658 202 682 242 c 1
 692 242 714 206 720 194 c 1
 680 72 548 -36 380 -36 c 0
 158 -36 70 164 70 402 c 0
 70 780 330 1078 564 1078 c 0
 712 1078 776 1002 776 916 c 0
 776 908 774 900 774 892 c 0
 766 820 718 776 636 768 c 1
EndSplineSet
EndChar

StartChar: d
Encoding: 100 100 29
Width: 1034
VWidth: 0
Flags: HMW
LayerCount: 3
Back
SplineSet
638.724 646 m 1
 564.798 298 460.822 182 352.822 182 c 0xd0
 312.822 182 288.578 196 287.148 278 c 0xc8
 286.836 295.846 289.948 371.946 299.578 464 c 2
 327.99 688 l 2
 350.744 874 390.956 1094 230.904 1094 c 0
 90.9043 1094 -54.3027 934 -115.301 762 c 1
 -58.6367 724 l 1
 -0.173828 812 63.709 910 108.115 910 c 0
 148.166 910 161.164 850 147.117 738 c 2
 96.5898 310 l 2
 91.3574 266 88.6836 190 89.2773 156 c 0xc8
 91.4062 34 162.523 -30 272.524 -30 c 0
 424.524 -30 552.044 112 616.414 320 c 1
 630.484 316 l 5
 589.068 168 566.488 -28 702.488 -28 c 20
 867.268 -28 994.882 64 1060.9 292 c 5
 1012.31 326 l 5
 965.776 242 873.416 148 831.416 148 c 4
 785.374 148 777.314 170.32 792.032 342 c 6
 813.63 594 l 1
 897.708 1048 l 1
 868.974 1090 l 1
 692.484 1118 642.23 1018 638.724 646 c 1
EndSplineSet
Fore
SplineSet
262 366 m 0
 262 230 262 132 330 132 c 0
 482 132 646 456 684 818 c 1
 648 894 592 936 526 936 c 0
 362 936 262 636 262 366 c 0
794 342 m 2
 772 172 788 148 834 148 c 0
 876 148 968 242 1014 326 c 1
 1062 292 l 1
 996 64 868 -28 704 -28 c 0
 570 -28 592 164 634 312 c 1
 618 316 l 1
 546 112 426 -30 264 -30 c 0
 120 -30 70 114 70 266 c 0
 70 532 282 1064 582 1064 c 0
 652 1064 684 1050 696 1028 c 1
 714 1030 l 1
 738 1380 l 1
 576 1412 l 1
 588 1500 l 1
 920 1530 l 1
 944 1502 l 1
 794 342 l 2
EndSplineSet
Layer: 2
SplineSet
258 368 m 7
 258 231.766 259.882 130 328 130 c 7
 476.122 130 680 462 674 832 c 5
 650 876 594.498 940 530 940 c 7
 338 940 258 584.038 258 368 c 7
826 1098 m 5
 898 1064 l 5
 824 592 l 5
 786 306 l 6
 768 166 782.926 148 830 148 c 7
 878.166 148 968 248 1016 332 c 5
 1064 288 l 5
 1006 104 902.34 -28 690 -28 c 7
 590 -28 556 108 626 300 c 5
 610 300 l 5
 574 172 422.788 -28 260 -28 c 7
 115.945 -28 68 111.789 68 264 c 7
 68 564.026 294 1066 590 1066 c 7
 644.038 1066 700 1042 722 1012 c 5
 734 1012 l 5
 792 1098 l 5
 826 1098 l 5
EndSplineSet
EndChar

StartChar: e
Encoding: 101 101 30
Width: 784
VWidth: 0
Flags: HMW
LayerCount: 3
Fore
SplineSet
70 420 m 0
 70 732 286 1078 556 1078 c 0
 682 1078 760 1018 760 876 c 0
 760 652 466 496 258 432 c 1
 258 204 330 124 488 124 c 0
 570 124 648 180 702 266 c 1
 746 228 l 1
 704 104 556 -36 380 -36 c 0
 164 -36 70 144 70 420 c 0
260 520 m 1
 466 596 574 734 574 840 c 0
 574 906 556 966 488 966 c 0
 404 966 280 824 260 520 c 1
EndSplineSet
EndChar

StartChar: f
Encoding: 102 102 31
Width: 678
VWidth: 0
Flags: HMWO
LayerCount: 3
Back
SplineSet
422 416 m 5
 412 44 352 -56 176 -28 c 5
 148 14 l 5
 248 468 l 5
 272 748 l 6
 283 878 278 928 232 928 c 4
 200 928 114 824 66 740 c 5
 10 784 l 5
 66 932 206 1112 370 1112 c 4
 536 1112 436 836 416 690 c 5
 430 686 l 5
 498 894 652 1082 804 1082 c 4
 914 1082 984 1018 984 896 c 4
 984 862 980 786 974 742 c 6
 920 306 l 6
 906 194 912 146 952 146 c 4
 996 146 1088 192 1148 296 c 5
 1198 260 l 5
 1134 88 1028 -28 832 -28 c 4
 672 -28 716 156 740 356 c 6
 768 588 l 6
 779 680 784 756 784 774 c 4
 784 856 760 870 720 870 c 4
 606 870 502 764 422 416 c 5
EndSplineSet
Fore
SplineSet
168 220 m 2
 220 936 l 1
 96 926 l 1
 114 1048 l 1
 236 1033 l 1
 266 1304 470 1560 680 1560 c 0
 772 1560 846 1499 846 1416 c 0
 846 1347.87 820.459 1305 762 1265 c 1
 734 1305 666 1342 590 1342 c 0
 490 1342 449 1288 437 1160 c 2
 425 1034 l 1
 706 1045 l 1
 675 926 l 1
 415 933 l 1
 360 148 l 2
 327 -323 40 -465 -90 -465 c 0
 -174 -465 -260 -408 -260 -328 c 0
 -260 -268 -236 -204 -180 -164 c 1
 -162 -206 -62 -240 16 -240 c 0
 152 -240 147 -63 168 220 c 2
EndSplineSet
Layer: 2
SplineSet
208 220 m 6
 260 940 l 5
 136 930 l 5
 154 1052 l 5
 276 1037 l 5
 306 1308 510 1560 720 1560 c 4
 812 1560 886 1499 886 1416 c 4
 886 1347.87 860.459 1305 802 1265 c 5
 774 1305 706 1342 630 1342 c 4
 530 1342 490 1288 477 1160 c 6
 465 1038 l 5
 746 1049 l 5
 715 930 l 5
 455 937 l 5
 400 148 l 6
 367 -323 80 -465 -50 -465 c 4
 -134 -465 -220 -408 -220 -328 c 4
 -220 -268 -196 -204 -140 -164 c 5
 -122 -206 -22 -240 56 -240 c 4
 192 -240 188 -63 208 220 c 6
EndSplineSet
EndChar

StartChar: g
Encoding: 103 103 32
Width: 986
VWidth: 0
Flags: HMW
LayerCount: 3
Back
SplineSet
308 692 m 7
 308 596 326 448 430 448 c 7
 522 448 568 586 568 692 c 7
 568 812 556 986 442 986 c 7
 356 986 308 850 308 692 c 7
708 948 m 5
 732 892 738 812 738 754 c 7
 738 550 552 356 372 356 c 4
 366 356 362 356 356 356 c 5
 328 338 292 308.062 292 276 c 7
 292 211.502 842.246 88.0605 842.246 -184 c 7
 842.246 -346 596 -468 402 -468 c 7
 174 -468 -82 -390 -82 -168 c 7
 -82 -64 28 -12 224 62 c 5
 224 68 l 5
 168 100 132 138 132 196 c 7
 132 250 184 312 282 382 c 5
 280 388 l 5
 220 412 138 516 138 640 c 7
 138 886 328 1076 492 1076 c 7
 600 1076 656 1028 676 1000 c 5
 710 1024 786 1078 866 1078 c 7
 904 1078 946 1044 946 1000 c 31
 946 940 890 890 860 872 c 5
 832 912 754 948 708 948 c 5
108 -174 m 7
 108 -296 268 -390 426 -390 c 7
 566 -390 644.246 -306 644.246 -232 c 7
 644.246 -127.913 436 0 284 28 c 5
 110 -66 108 -91.9023 108 -174 c 7
EndSplineSet
Fore
SplineSet
180 -198 m 0
 180 -320 342 -390 514 -390 c 0
 662 -390 740 -316 740 -214 c 0
 740 -88 522 -18 362 26 c 1
 206 -46 180 -116 180 -198 c 0
794 942 m 1
 818 886 836 808 836 734 c 0
 836 530 642 332 446 332 c 0
 440 332 434 332 428 332 c 1
 400 314 364 284 364 252 c 0
 364 188 938 130 938 -176 c 0
 938 -338 692 -468 488 -468 c 0
 246 -468 -10 -414 -10 -192 c 0
 -10 -88 112 -14 296 48 c 1
 296 54 l 1
 240 86 202 108 202 172 c 0
 202 226 256 288 354 358 c 1
 352 364 l 1
 292 388 210 498 210 622 c 0
 210 868 400 1078 568 1078 c 0
 686 1078 738 1022 760 994 c 1
 794 1018 872 1072 952 1072 c 0
 990 1072 1046 1038 1046 990 c 0
 1046 902 976 870 946 852 c 1
 918 892 840 942 794 942 c 1
380 674 m 0
 380 578 398 424 508 424 c 0
 608 424 668 568 668 674 c 0
 668 794 640 990 516 990 c 0
 428 990 380 832 380 674 c 0
EndSplineSet
Layer: 2
SplineSet
308 692 m 4
 308 596 326 448 436.15 448 c 7
 536.596 448 584.068 585.994 584.068 692 c 4
 584.068 812 567.652 986 443.186 986 c 7
 356 986 308 850 308 692 c 4
731.398 948 m 5
 755.4 892 761.398 808 761.398 754 c 4
 761.398 550 570.386 356 373.864 356 c 4
 367.312 356 362.946 356 356.394 356 c 5
 328 338 292 308.062 292 276 c 4
 292 211.502 865.646 88.0605 865.644 -184 c 4
 865.646 -346 619.4 -468 415.904 -468 c 7
 174 -468 -82 -400 -82 -178 c 4
 -82 -74 28 -12 224 62 c 5
 224 68 l 5
 168 100 132 138 132 196 c 4
 132 250 184 312 282 382 c 5
 280 388 l 5
 220 412 138 516 138 640 c 4
 138 886 328 1076 496.762 1076 c 7
 614.676 1076 676.36 1028 698.51 1000 c 5
 733.4 1024 809.4 1078 889.4 1078 c 7
 927.4 1078 970 1044 969.398 1000 c 28
 968 940 913.4 890 883.4 872 c 5
 855.398 912 777.398 948 731.398 948 c 5
108 -184 m 4
 108 -306 268.724 -390 441.228 -390 c 7
 589.4 -390 667.646 -306 667.646 -232 c 4
 667.644 -127.914 447.75 0 284 28 c 5
 110 -66 108 -101.902 108 -184 c 4
EndSplineSet
EndChar

StartChar: h
Encoding: 104 104 33
Width: 1104
VWidth: 0
Flags: HMW
LayerCount: 3
Back
SplineSet
422 416 m 5
 502 764 606 870 720 870 c 7
 760 870 784 856 784 774 c 7
 784 756 780 680 768 588 c 6
 740 356 l 6
 716 156 672 -28 832 -28 c 7
 1028 -28 1134 88 1198 260 c 5
 1148 296 l 5
 1088 192 996 146 952 146 c 7
 912 146 906 194 920 306 c 6
 974 742 l 6
 980 786 984 862 984 896 c 7
 984 1018 914 1082 804 1082 c 7
 652 1082 498 894 430 686 c 5
 416 690 l 5
 436 836 536 1112 370 1112 c 20
 206 1112 66 932 10 784 c 5
 66 740 l 5
 114 824 200 928 232 928 c 7
 278 928 284 878 272 748 c 6
 248 468 l 5
 148 14 l 5
 176 -28 l 5
 352 -56 412 44 422 416 c 5
EndSplineSet
Fore
SplineSet
274 1380 m 1
 110 1412 l 1
 122 1500 l 1
 470 1528 l 1
 490 1502 l 1
 414 1006 l 1
 338 692 l 1
 352 688 l 1
 420 896 574 1084 726 1084 c 0
 836 1084 906 1020 906 898 c 0
 906 864 902 788 896 744 c 2
 842 308 l 2
 828 196 834 148 874 148 c 0
 918 148 1010 194 1070 298 c 1
 1120 262 l 1
 1056 90 950 -26 754 -26 c 0
 594 -26 638 158 662 358 c 2
 690 590 l 2
 701 682 706 758 706 776 c 0
 706 858 682 872 642 872 c 0
 528 872 424 766 344 418 c 1
 334 46 274 -50 98 -22 c 1
 70 20 l 1
 166 532 l 1
 274 1380 l 1
EndSplineSet
EndChar

StartChar: i
Encoding: 105 105 34
Width: 716
VWidth: 0
Flags: HMW
LayerCount: 3
Back
SplineSet
620 646 m 1
 540 298 444 182 336 182 c 0xd0
 296 182 272 196 272 278 c 0xc8
 272 295.846 278 372 287.678 464 c 2
 310 688 l 6
 327.268 861.27 380.05 1094 220 1094 c 4
 80 1094 -68 934 -132 762 c 5
 -76 724 l 5
 -16 812 49.5938 910 94 910 c 4
 134.051 910 142.357 848.184 130 738 c 6
 82 310 l 2
 78 266 72 190 72 156 c 0xc8
 72 34 142 -30 252 -30 c 0
 404 -30 524 112 597.69 320 c 1
 611.76 316 l 1
 570.344 168 546 -28 683.764 -28 c 16
 848.542 -28 976.158 64 1042.18 292 c 1
 993.586 326 l 1
 947.05 242 854.692 148 812.692 148 c 0
 766.648 148 758.59 170.32 773.306 342 c 2
 794.906 594 l 1
 878.982 1048 l 1
 850.25 1090 l 1
 673.76 1118 623.506 1018 620 646 c 1
EndSplineSet
Fore
SplineSet
414 1576 m 0
 474 1576 518 1520 518 1460 c 0
 518 1378 460 1304 378 1304 c 0
 318 1304 276 1356 276 1416 c 0
 276 1490 332 1576 414 1576 c 0
442 688 m 1
 410 306 l 2
 400 192 402 146 442 146 c 0
 486 146 578 192 638 296 c 1
 688 260 l 1
 624 88 518 -28 322 -28 c 0
 162 -28 198 154 220 356 c 2
 262 738 l 2
 274 848 266 910 226 910 c 0
 182 910 116 812 56 724 c 1
 0 762 l 1
 64 934 212 1094 352 1094 c 0
 512 1094 460 862 442 688 c 1
EndSplineSet
Layer: 2
SplineSet
282 306 m 18
 276 268 272 230 272 198 c 3
 272 152 282 126 324 126 c 3
 364 126 408 136 432 154 c 1
 456 94 l 1
 400 30 332 -26 204 -26 c 3
 120 -26 80 38 80 146 c 3
 80 208 90 264 116 470 c 10
 168 904 l 17
 4 936 l 1
 16 1024 l 1
 352 1052 l 1
 372 1026 l 1
 282 306 l 18
332 1574 m 27
 392 1574 436 1518 436 1458 c 24
 436 1376 378 1302 296 1302 c 19
 236 1302 194 1354 194 1414 c 0
 194 1488 250 1574 332 1574 c 27
EndSplineSet
EndChar

StartChar: j
Encoding: 106 106 35
Width: 592
VWidth: 0
Flags: HMW
LayerCount: 3
Back
SplineSet
416 166 m 7
 512 166 586 232 634 316 c 5
 684 252 l 5
 636 120 512 -26 332 -26 c 7
 192 -26 142 56 194 428 c 6
 264 936 l 5
 130 930 l 5
 158 1050 l 5
 278 1042 l 5
 302 1292 l 13
 484 1316 l 21
 498 1300 l 5
 458 1040 l 5
 736 1046 l 5
 706 926 l 5
 444 934 l 5
 390 472 l 6
 360 212 374 166 416 166 c 7
EndSplineSet
Fore
SplineSet
224 288 m 1
 286 904 l 1
 122 936 l 1
 134 1024 l 1
 470 1052 l 1
 490 1026 l 1
 392 152 l 1
 328 -324 96 -468 -90 -468 c 0
 -300 -468 -306 -296 -164 -236 c 1
 -98 -320 -42 -342 12 -342 c 0
 134 -342 176 -88 224 288 c 1
450 1578 m 0
 514 1578 560 1518 560 1456 c 0
 560 1370 498 1292 412 1292 c 0
 348 1292 304 1346 304 1410 c 0
 304 1488 364 1578 450 1578 c 0
EndSplineSet
Layer: 2
SplineSet
472.49 1056.64 m 1
 364.01 116.48 l 2
 326.02 -226.72 144.57 -468 -123.75 -468 c 0
 -211.11 -468 -276.494 -418.08 -266.996 -368.16 c 0
 -260.814 -326.56 -229.254 -289.12 -175.174 -289.12 c 0
 -98.2129 -289.12 -105.779 -378.56 -3.85938 -378.56 c 0
 64.7812 -378.56 128.295 -287.04 158.719 -33.2793 c 2
 269.04 929.76 l 1
 144.211 950.56 l 1
 163.021 1031.68 l 1
 472.49 1056.64 l 1
327.892 1374.88 m 1
 343.808 1443.52 392.014 1480.96 460.652 1480.96 c 0
 523.052 1480.96 566.37 1443.52 550.454 1374.88 c 1
 538.696 1306.24 488.832 1264.64 422.272 1264.64 c 0
 355.712 1264.64 316.134 1306.24 327.892 1374.88 c 1
EndSplineSet
EndChar

StartChar: l
Encoding: 108 108 36
Width: 556
VWidth: 0
Flags: HMW
LayerCount: 3
Fore
SplineSet
110 356 m 2
 202 1068 l 1
 234 1380 l 1
 70 1412 l 1
 82 1500 l 1
 418 1528 l 1
 438 1502 l 1
 348 752 l 1
 302 306 l 2
 290 192 298 146 338 146 c 0
 382 146 474 192 534 296 c 1
 584 260 l 1
 520 88 412 -28 216 -28 c 0
 56 -28 84 158 110 356 c 2
EndSplineSet
Layer: 2
SplineSet
386 1158 m 18
 403.268 1331.27 456.05 1564 296 1564 c 0
 156 1564 8 1404 -56 1232 c 1
 0 1194 l 1
 60 1282 125.594 1380 170 1380 c 0
 210.05 1380 219.616 1321.73 206 1208 c 10
 104 356 l 22
 80 156 45.9492 -28 206 -28 c 7
 402.042 -28 508 88 572 260 c 5
 522 296 l 5
 462 192 370.406 146 326 146 c 7
 285.95 146 282 192 294 306 c 14
 386 1158 l 18
EndSplineSet
EndChar

StartChar: m
Encoding: 109 109 37
Width: 1702
VWidth: 0
Flags: HMW
LayerCount: 3
Back
SplineSet
802 416 m 1
 882 764 986 870 1100 870 c 3xd0
 1140 870 1164 856 1164 774 c 3xc8
 1164 756.154 1159.56 680.054 1148.32 588 c 2
 1120 356 l 2
 1096 156 1051.95 -28 1212 -28 c 3
 1408.04 -28 1514 88 1578 260 c 1
 1528 296 l 1
 1468 192 1376.41 146 1332 146 c 3
 1291.95 146 1286.03 193.234 1300 306 c 2
 1354 742 l 2
 1360 786 1364 862 1364 896 c 3xc8
 1364 1018 1294 1082 1184 1082 c 3
 1032 1082 878 894 810 686 c 1
 796 690 l 1
 816 836 916 1112 750 1112 c 16
 585.22 1112 446 932 390 784 c 1
 446 740 l 1
 494 824 579.252 928 612 928 c 3
 658.042 928 664 878 652 748 c 2
 628 468 l 1
 528 14 l 1
 556 -28 l 1
 732 -56 792 44 802 416 c 1
EndSplineSet
Fore
SplineSet
970 928 m 0
 970 860 958 792 946 756 c 1
 960 750 l 1
 1036 942 1142 1084 1294 1084 c 0
 1404 1084 1474 1016 1474 894 c 0
 1474 860 1472 784 1466 740 c 2
 1412 304 l 2
 1398 192 1404 144 1444 144 c 0
 1488 144 1580 190 1640 294 c 1
 1690 258 l 1
 1626 86 1520 -30 1324 -30 c 0
 1164 -30 1208 154 1232 354 c 2
 1260 586 l 2
 1271 678 1276 754 1276 772 c 0
 1276 854 1252 872 1212 872 c 0
 1098 872 1002 762 922 414 c 1
 912 42 858 -62 682 -34 c 1
 654 8 l 1
 748 466 l 1
 762 558 776 756 776 774 c 0
 776 856 748 870 708 870 c 0
 602 870 502 764 422 416 c 1
 412 44 352 -50 176 -22 c 1
 148 20 l 1
 248 468 l 1
 272 748 l 2
 283 878 278 928 232 928 c 0
 200 928 114 824 66 740 c 1
 10 784 l 1
 66 932 206 1112 370 1112 c 0
 536 1112 436 836 416 690 c 1
 430 686 l 1
 498 894 652 1082 804 1082 c 0
 914 1082 970 1040 970 928 c 0
EndSplineSet
EndChar

StartChar: n
Encoding: 110 110 38
Width: 1174
VWidth: 0
Flags: HMW
LayerCount: 3
Fore
SplineSet
422 416 m 5
 412 44 352 -56 176 -28 c 5
 148 14 l 5
 248 468 l 5
 272 748 l 6
 283 878 278 928 232 928 c 4
 200 928 114 824 66 740 c 5
 10 784 l 5
 66 932 206 1112 370 1112 c 4
 536 1112 436 836 416 690 c 5
 430 686 l 5
 498 894 652 1082 804 1082 c 4
 914 1082 984 1018 984 896 c 4
 984 862 980 786 974 742 c 6
 920 306 l 6
 906 194 912 146 952 146 c 4
 996 146 1088 192 1148 296 c 5
 1198 260 l 5
 1134 88 1028 -28 832 -28 c 4
 672 -28 716 156 740 356 c 6
 768 588 l 6
 779 680 784 756 784 774 c 4
 784 856 760 870 720 870 c 4
 606 870 502 764 422 416 c 5
EndSplineSet
EndChar

StartChar: o
Encoding: 111 111 39
Width: 936
VWidth: 0
Flags: HMW
LayerCount: 3
Back
SplineSet
516 108 m 3
 664.122 108 740 321.274 740 496 c 27
 740 692.758 660.052 944 508 944 c 3
 347.886 944 288 719.406 288 540 c 27
 288 349.494 363.948 108 516 108 c 3
588 1080 m 3
 796.47 1080 910 876 910 624 c 3
 910 282 704.37 -30 438 -30 c 3
 251.474 -30 114 153.928 114 400 c 3
 114 714 287.994 1080 588 1080 c 3
EndSplineSet
Fore
SplineSet
392 -30 m 0
 184 -30 70 174 70 426 c 0
 70 768 276 1080 542 1080 c 0
 728 1080 866 896 866 650 c 0
 866 336 692 -30 392 -30 c 0
464 944 m 0
 300 944 240 730 240 556 c 0
 240 360 320 108 472 108 c 0
 624 108 692 332 692 512 c 0
 692 702 616 944 464 944 c 0
EndSplineSet
Layer: 2
SplineSet
730 648 m 7
 730 844 680 988 574 988 c 7
 440 988 306 814 306 434 c 4
 306 212 366 58 474 58 c 4
 658 58 730 374 730 648 c 7
438 -32 m 23
 216 -32 100 166 100 418 c 4
 100 760 294 1082 622 1082 c 7
 826 1082 932 890 932 626 c 4
 932 312 758 -32 438 -32 c 23
EndSplineSet
EndChar

StartChar: p
Encoding: 112 112 40
Width: 1076
VWidth: 0
Flags: HMW
LayerCount: 3
Back
SplineSet
422 416 m 5
 502 764 606 870 720 870 c 7
 760 870 784 856 784 774 c 7
 784 756 780 680 768 588 c 6
 740 356 l 6
 716 156 672 -28 832 -28 c 7
 1028 -28 1134 88 1198 260 c 5
 1148 296 l 5
 1088 192 996 146 952 146 c 7
 912 146 906 194 920 306 c 6
 974 742 l 6
 980 786 984 862 984 896 c 7
 984 1018 914 1082 804 1082 c 7
 652 1082 498 894 430 686 c 5
 416 690 l 5
 436 836 536 1112 370 1112 c 20
 206 1112 66 932 10 784 c 5
 66 740 l 5
 114 824 200 928 232 928 c 7
 278 928 284 878 272 748 c 6
 248 468 l 5
 148 14 l 5
 176 -28 l 5
 352 -56 412 44 422 416 c 5
EndSplineSet
Fore
SplineSet
112 -312 m 1
 212 240 l 1
 260 748 l 2
 272 878 266 940 220 940 c 0
 188 940 104 824 56 740 c 1
 0 784 l 1
 56 932 194 1124 358 1124 c 0
 528 1124 424 836 404 690 c 1
 418 688 l 1
 496 896 632 1078 760 1078 c 0
 910 1078 1006 912 1006 672 c 0
 1006 148 666 -36 390 -20 c 1
 430 128 l 1
 598 88 796 162 796 652 c 0
 796 820 768 886 694 886 c 0
 578 886 434 652 382 212 c 1
 330 -164 334 -172 310 -318 c 1
 498 -356 l 1
 476 -442 l 1
 -58 -442 l 1
 -34 -352 l 1
 112 -312 l 1
EndSplineSet
Layer: 2
SplineSet
54 -312 m 5
 154 240 l 5
 202 748 l 6
 214 878 208.042 940 162 940 c 7
 129.252 940 46 824 -2 740 c 5
 -58 784 l 5
 -2 932 135.221 1124 300 1124 c 12
 470 1124 366 836 346 690 c 5
 360 688 l 5
 438 896 574 1078 702 1078 c 7
 852 1078 948 912 948 672 c 4
 948 148 624 -14 368 -20 c 13
 362 84 l 21
 542 98 738 162 738 652 c 4
 738 820 710 886 636 886 c 7
 520 886 376 652 324 212 c 5
 272 -164 276 -172 252 -318 c 5
 440 -356 l 5
 418 -442 l 5
 -116 -442 l 5
 -92 -352 l 5
 54 -312 l 5
EndSplineSet
EndChar

StartChar: q
Encoding: 113 113 41
Width: 976
VWidth: 0
Flags: HMW
LayerCount: 3
Back
SplineSet
-210 368 m 7x70
 -210 231.766 -208.118 130 -140 130 c 7
 8.12109 130 212 462 206 832 c 5
 182 876 126.498 940 62 940 c 7
 -130 940 -210 584.038 -210 368 c 7x70
358 1098 m 5
 430 1064 l 5x74
 356 592 l 5
 318 306 l 6
 300 166 314.926 148 362 148 c 7
 410.166 148 500 248 548 332 c 5
 596 288 l 5
 538 104 434.34 -28 222 -28 c 7
 122 -28 88 108 158 300 c 5
 142 300 l 5
 106 172 -45.2129 -28 -208 -28 c 7
 -352.054 -28 -400 111.789 -400 264 c 7
 -400 564.026 -174 1066 122 1066 c 7
 176.037 1066 232 1042 254 1012 c 5
 266 1012 l 5
 324 1098 l 5
 358 1098 l 5
EndSplineSet
Fore
SplineSet
586 174 m 1
 542 66 406 -30 272 -30 c 0
 128 -30 70 126 70 264 c 0
 70 628 310 1064 578 1064 c 0
 648 1064 682 1044 710 1012 c 1
 722 1012 l 1
 766 1102 l 1
 798 1102 l 1
 884 1074 l 1
 796 336 l 1
 736 -312 l 1
 900 -350 l 1
 880 -436 l 1
 314 -436 l 1
 336 -346 l 1
 542 -306 l 1
 630 384 l 1
 670 824 l 1
 646 868 584 938 520 938 c 0
 328 938 262 604 262 368 c 0
 262 270 290 130 374 130 c 0
 454 130 510 174 566 246 c 1
 586 174 l 1
EndSplineSet
EndChar

StartChar: r
Encoding: 114 114 42
Width: 856
VWidth: 0
Flags: HMW
LayerCount: 3
Fore
SplineSet
422 416 m 1
 412 44 352 -56 176 -28 c 1
 148 14 l 1
 248 468 l 1
 272 748 l 2
 283 878 278 928 232 928 c 0
 200 928 114 824 66 740 c 1
 10 784 l 1
 66 932 206 1112 370 1112 c 0
 536 1112 440 836 420 690 c 1
 436 686 l 1
 496 898 636 1084 756 1084 c 0
 830 1084 866 1010 866 954 c 0
 866 880 812 818 762 782 c 1
 748 808 714 824 676 824 c 0
 524 824 472 620 422 416 c 1
EndSplineSet
Layer: 2
SplineSet
338 416 m 5
 418 764 522 870 636 870 c 3
 676 870 700 856 700 774 c 3
 700 756.154 695.56 680.054 684.322 588 c 2
 656 356 l 2
 632 156 587.95 -28 748 -28 c 3
 944.042 -28 1050 88 1114 260 c 1
 1064 296 l 1
 1004 192 912.406 146 868 146 c 3
 827.95 146 822.034 193.234 836 306 c 2
 890 742 l 2
 896 786 900 862 900 896 c 3
 900 1018 830 1082 720 1082 c 3
 568 1082 414 894 346 686 c 5
 332 690 l 5
 352 836 452 1112 286 1112 c 20
 121.221 1112 -18 932 -74 784 c 5
 -18 740 l 5
 30 824 115.252 928 148 928 c 7
 194.043 928 200 878 188 748 c 6
 164 468 l 5
 64 14 l 5
 92 -28 l 5
 268 -56 328 44 338 416 c 5
EndSplineSet
EndChar

StartChar: s
Encoding: 115 115 43
Width: 838
VWidth: 0
Flags: HMW
LayerCount: 3
Fore
SplineSet
538 186 m 0
 538 366 158 540 158 772 c 0
 158 932 336 1082 514 1082 c 0
 646 1082 742 1022 742 936 c 0
 742 896 698 834 636 802 c 1
 612 850 518 972 430 972 c 0
 380 972 312 940 312 876 c 0
 312 708 716 510 716 256 c 0
 716 116 522 -42 302 -42 c 0
 152 -42 44 32 44 128 c 0
 44 192 94 268 182 280 c 1
 210 192 290 68 378 68 c 0
 478 68 538 116 538 186 c 0
EndSplineSet
Layer: 2
SplineSet
520 192 m 7
 520 350 180 564 180 772 c 7
 180 932 338 1082 516 1082 c 7
 648 1082 718 1028 718 942 c 7
 718 902 676 842 614 810 c 5
 590 858 520 972 432 972 c 7
 382 972 328 940 328 876 c 7
 328 724 688 484 688 254 c 7
 688 114 502 -42 316 -42 c 23
 166 -42 104 14 104 80 c 7
 104 156 162 214 214 236 c 5
 250 172 304 68 392 68 c 7
 478 68 520 122 520 192 c 7
EndSplineSet
EndChar

StartChar: t
Encoding: 116 116 44
Width: 726
VWidth: 0
Flags: HMW
LayerCount: 3
Back
SplineSet
748 646 m 5
 668 298 572 182 464 182 c 4
 424 182 400 196 400 278 c 4
 400 296 402 372 416 464 c 6
 450 688 l 6
 482 900 522 1094 362 1094 c 4
 222 1094 74 934 10 762 c 5
 66 724 l 5
 126 812 196 900 240 900 c 4
 280 900 288 850 272 738 c 6
 210 310 l 6
 204 266 200 190 200 156 c 4
 200 34 270 -30 380 -30 c 4
 532 -30 652 112 726 320 c 5
 740 316 l 5
 698 168 674 -28 812 -28 c 20
 976 -28 1104 64 1170 292 c 5
 1122 326 l 5
 1076 242 982 148 940 148 c 4
 894 148 888 170 902 342 c 6
 922 594 l 5
 1006 1048 l 5
 978 1090 l 5
 802 1118 752 1018 748 646 c 5
EndSplineSet
Fore
SplineSet
386 166 m 4
 482 166 556 232 604 316 c 5
 654 252 l 5
 606 120 482 -26 302 -26 c 4
 162 -26 113 56 164 428 c 6
 234 936 l 5
 100 930 l 5
 128 1050 l 5
 248 1042 l 5
 272 1292 l 5
 454 1316 l 5
 468 1300 l 5
 428 1040 l 5
 706 1046 l 5
 676 926 l 5
 414 934 l 5
 360 472 l 6
 330 212 344 166 386 166 c 4
EndSplineSet
EndChar

StartChar: u
Encoding: 117 117 45
Width: 1186
VWidth: 0
Flags: HMW
LayerCount: 3
Back
SplineSet
758.724 646 m 5
 684.798 298 580.822 182 472.822 182 c 4xd0
 432.822 182 408.578 196 407.148 278 c 4xc8
 406.836 295.846 409.948 371.946 419.578 464 c 6
 447.99 688 l 6
 470.744 874 510.956 1094 350.904 1094 c 4
 210.904 1094 65.6973 934 4.69922 762 c 5
 61.3633 724 l 5
 119.826 812 183.709 910 228.116 910 c 4
 268.166 910 281.164 850 267.118 738 c 6
 216.59 310 l 6
 211.358 266 208.684 190 209.278 156 c 4xc8
 211.406 34 282.524 -30 392.524 -30 c 4
 544.524 -30 672.044 112 736.414 320 c 5
 750.484 316 l 5
 709.068 168 686.488 -28 822.488 -28 c 20
 987.268 -28 1114.88 64 1180.9 292 c 5
 1132.31 326 l 5
 1085.78 242 993.416 148 951.416 148 c 4
 905.374 148 897.314 170.32 912.032 342 c 6
 933.63 594 l 5
 1017.71 1048 l 5
 988.974 1090 l 5
 812.484 1118 762.23 1018 758.724 646 c 5
EndSplineSet
Fore
SplineSet
748 646 m 1
 752 1018 802 1118 978 1090 c 1
 1006 1048 l 1
 922 594 l 1
 902 342 l 2
 888 170 894 148 940 148 c 0
 982 148 1076 242 1122 326 c 1
 1170 292 l 1
 1104 64 976 -28 812 -28 c 0
 674 -28 698 168 740 316 c 1
 726 320 l 1
 652 112 532 -30 380 -30 c 0
 270 -30 200 34 200 156 c 0
 200 190 204 266 210 310 c 2
 272 738 l 2
 288 850 280 900 240 900 c 0
 196 900 126 812 66 724 c 1
 10 762 l 1
 74 934 222 1094 362 1094 c 0
 522 1094 482 900 450 688 c 2
 416 464 l 2
 402 372 400 296 400 278 c 0
 400 196 424 182 464 182 c 0
 572 182 668 298 748 646 c 1
EndSplineSet
EndChar

StartChar: v
Encoding: 118 118 46
Width: 1028
VWidth: 0
Flags: HMW
LayerCount: 3
Back
SplineSet
360.828 482 m 6
 335.722 257.792 383.842 110 485.842 110 c 7
 653.842 110 737.01 430 745.39 670 c 4
 751.672 850 657.932 972 593.956 1030 c 5
 623.142 1064 672.048 1090 730.048 1090 c 31
 858.048 1090 896.814 940 892.346 812 c 28
 879.29 438 703.162 -24 389.164 -24 c 7
 191.164 -24 140.061 173.65 168.732 422 c 6
 203.596 724 l 6
 217.112 834 213.65 896 173.6 896 c 4
 129.193 896 60.1816 798 -2.89453 710 c 5
 -57.5664 748 l 5
 12.4395 920 166.025 1080 306.026 1080 c 4
 466.076 1080 392.602 762 372.918 590 c 6
 360.828 482 l 6
EndSplineSet
Fore
SplineSet
426 482 m 2
 401 258 450 110 552 110 c 0
 720 110 810 428 810 668 c 0
 810 872 724 972 660 1030 c 1
 690 1064 738 1090 796 1090 c 0
 912 1090 958 962 958 840 c 0
 958 460 770 -24 456 -24 c 0
 258 -24 206 174 234 422 c 1
 270 724 l 2
 283 834 280 896 240 896 c 0
 196 896 128 798 64 710 c 1
 8 748 l 1
 78 920 232 1080 372 1080 c 0
 532 1080 457 762 438 590 c 2
 426 482 l 2
EndSplineSet
EndChar

StartChar: x
Encoding: 120 120 47
Width: 1032
VWidth: 0
Flags: HMW
LayerCount: 3
Fore
SplineSet
698 -26 m 0
 614 -26 570 42 534 158 c 2
 470 362 l 1
 372 114 226 -40 110 -40 c 0
 20 -40 -12 28 -12 84 c 0
 -12 136 0 184 56 228 c 1
 88 200 132 192 168 192 c 0
 280 192 358 314 430 484 c 1
 370 684 318 884 264 884 c 0
 222 884 166 800 118 716 c 1
 62 760 l 1
 118 908 218 1064 374 1064 c 0
 476 1064 522 898 582 680 c 1
 676 876 816 1052 920 1052 c 0
 994 1052 1040 1004 1040 948 c 0
 1040 876 1008 828 976 792 c 1
 944 820 904 824 866 824 c 0
 770 824 680 718 618 572 c 1
 734 226 l 2
 750 178 774 138 804 138 c 0
 848 138 912 194 966 286 c 1
 1016 250 l 1
 964 90 894 -26 698 -26 c 0
EndSplineSet
EndChar

StartChar: y
Encoding: 121 121 48
Width: 1138
VWidth: 0
Flags: HMW
LayerCount: 3
Back
SplineSet
654.768 196 m 21
 681.592 196 l 5
 882.012 495.224 891.406 551.82 884.28 734 c 4
 879.818 848 788.676 963.128 722.932 1024 c 5
 751.13 1056.72 815.72 1094.74 873.918 1094.74 c 4
 986.162 1094.74 1066.65 980 1071.58 854 c 4
 1077.69 698 1023.59 496 626.998 0 c 4
 626.998 0 644.04 120 654.768 196 c 21
295.624 904 m 7
 262.876 904 181.695 800 136.982 716 c 5
 79.2598 760 l 5
 129.469 908 266.426 1088 406.426 1088 c 4
 481.992 1088 569.479 1010 591.876 836 c 6
 667.292 248 l 6
 713.884 -115.252 507.624 -476 251.06 -460 c 4
 139.008 -453.012 84.1211 -404.002 80.834 -320 c 4
 78.625 -263.6 99.1426 -218 157.588 -170 c 5
 218.992 -216 270.662 -234.088 334.474 -236 c 4
 467.922 -240 548.292 -189.158 503.364 144 c 6
 423.528 736 l 6
 407.896 846 336.524 904 295.624 904 c 7
EndSplineSet
Fore
SplineSet
296 904 m 4
 264 904 180 800 136 716 c 5
 80 760 l 5
 130 908 266 1088 406 1088 c 4
 482 1088 570 1010 592 836 c 6
 668 248 l 6
 670 231 672 213 673 196 c 5
 654 196 l 5
 644 120 626 0 626 0 c 5
 670 56 l 5
 641 -228 469 -460 252 -460 c 4
 140 -460 80 -404 80 -320 c 4
 80 -264 100 -218 158 -170 c 5
 220 -216 270 -236 334 -236 c 4
 468 -236 546 -190 502 144 c 5
 422 736 l 5
 406 846 336 904 296 904 c 4
673 196 m 5
 676 148 675 102 670 56 c 5
 1025 511 1068 702 1068 852 c 4
 1068 980 986 1094 874 1094 c 4
 816 1094 750 1056 722 1024 c 5
 788 964 884 840 884 720 c 4
 884 538 882 496 682 196 c 5
 673 196 l 5
EndSplineSet
EndChar

StartChar: z
Encoding: 122 122 49
Width: 946
VWidth: 0
Flags: HMW
LayerCount: 3
Back
SplineSet
53.6816 -16 m 0
 14.082 -16 -4.55469 14.8008 -7.09961 39 c 0
 -11.0293 76.4004 12.3652 105 35.7598 133.6 c 2
 532.358 725.4 l 1
 636.002 806.8 l 1
 628.476 815.6 l 1
 601.034 804.6 577.296 800.2 550.896 800.2 c 0
 381.496 800.2 337.752 965.2 221.152 965.2 c 0
 185.953 965.2 163.141 952 155.959 936.6 c 1
 161.055 930 l 1
 224.854 930 267.11 883.8 272.888 828.8 c 0
 278.902 771.6 243.464 732 188.465 732 c 0
 131.264 732 77.7773 780.4 71.0723 844.2 c 0
 58.8164 960.8 166.748 1064.2 289.95 1064.2 c 0
 441.748 1064.2 516.416 960.8 652.816 960.8 c 0
 699.016 960.8 735.954 965.2 761.198 976.2 c 1
 751.942 1022.4 759.36 1077.4 809.958 1077.4 c 0
 842.958 1077.4 858.936 1051 861.479 1026.8 c 0
 864.948 993.8 843.984 963 818.622 932.2 c 2
 315.884 336 l 1
 221.854 267.8 l 1
 227.178 259 l 1
 227.178 259 246.516 263.4 275.118 263.4 c 0
 451.118 263.4 528.32 94 655.922 94 c 0
 699.922 94 724.238 113.801 741.614 157.801 c 1
 736.521 164.4 l 1
 660.214 157.801 607.652 197.4 600.484 265.6 c 0
 594.01 327.2 631.416 369 688.618 369 c 0
 750.216 369 808.336 318.4 815.504 250.2 c 0
 831.458 98.4004 742.282 -16 572.88 -16 c 0
 399.082 -16 303.576 118.199 164.977 118.199 c 0
 123.176 118.199 114.84 113.801 93.7656 105 c 1
 122.82 58.8008 124.082 -16 53.6816 -16 c 0
EndSplineSet
Fore
SplineSet
654 144 m 0
 716 144 794 242 842 326 c 1
 888 274 l 1
 830 90 728 -16 556 -16 c 0
 416 -16 364 104 224 120 c 1
 120 -16 l 1
 92 -16 l 1
 14 42 l 1
 318 412 l 1
 656 850 l 1
 504 836 492 924 304 924 c 0
 240 924 190 840 146 754 c 1
 90 798 l 1
 146 968 244 1094 412 1094 c 0
 524 1094 570 1024 770 992 c 1
 818 1066 l 1
 850 1064 l 1
 922 1008 l 1
 536 532 l 1
 342 282 l 1
 462 262 574 144 654 144 c 0
EndSplineSet
Layer: 2
SplineSet
310 346 m 3
 310 209.766 311.882 108 380 108 c 3
 528.122 108 732 440 726 810 c 1
 702 854 646.498 918 582 918 c 3
 390 918 310 562.038 310 346 c 3
878 1076 m 1
 950 1042 l 1
 876 570 l 1
 838 284 l 2
 820 144 834.926 126 882 126 c 7
 930.166 126 1020 226 1068 310 c 5
 1116 266 l 5
 1058 82 954.34 -50 742 -50 c 7
 642 -50 608 86 678 278 c 1
 662 278 l 1
 626 150 474.788 -50 312 -50 c 3
 167.945 -50 120 89.7891 120 242 c 3
 120 542.026 346 1044 642 1044 c 3
 696.038 1044 752 1020 774 990 c 1
 786 990 l 1
 844 1076 l 1
 878 1076 l 1
EndSplineSet
EndChar

StartChar: comma
Encoding: 44 44 50
Width: 442
VWidth: 0
Flags: HMW
LayerCount: 3
Fore
SplineSet
-22 -296 m 1
 142 -254 232 -152 232 -74 c 0
 232 -8 196 44 110 44 c 0
 98 44 88 40 74 36 c 1
 68 62 66 74 66 102 c 0
 66 202 178 264 240 264 c 0
 324 264 418 222 418 38 c 0
 418 -78 324 -296 -8 -380 c 1
 -22 -296 l 1
EndSplineSet
EndChar

StartChar: period
Encoding: 46 46 51
Width: 490
VWidth: 0
Flags: HMW
LayerCount: 3
Fore
SplineSet
244 248 m 0
 324 248 390 188 390 110 c 0
 390 28 324 -38 244 -38 c 0
 164 -38 100 30 100 112 c 0
 100 190 166 248 244 248 c 0
EndSplineSet
EndChar

StartChar: colon
Encoding: 58 58 52
Width: 490
VWidth: 0
Flags: HMW
LayerCount: 3
Fore
SplineSet
250 272 m 0
 324 272 386 214 386 142 c 0
 386 64 324 2 250 2 c 0
 174 2 114 66 114 144 c 0
 114 216 176 272 250 272 c 0
250 1032 m 0
 324 1032 386 976 386 902 c 0
 386 824 324 762 250 762 c 0
 174 762 114 826 114 904 c 0
 114 978 176 1032 250 1032 c 0
EndSplineSet
EndChar

StartChar: k
Encoding: 107 107 53
Width: 1062
VWidth: 0
Flags: HMW
LayerCount: 3
Back
SplineSet
340 1380 m 21
 176 1412 l 5
 188 1500 l 5
 536 1528 l 5
 556 1502 l 5
 480 1006 l 5
 404 692 l 5
 418 688 l 5
 486 896 640 1084 792 1084 c 7
 902 1084 972 1020 972 898 c 7
 972 864 968 788 962 744 c 6
 908 308 l 6
 894 196 900 148 940 148 c 7
 984 148 1076 194 1136 298 c 5
 1186 262 l 5
 1122 90 1016 -26 820 -26 c 7
 660 -26 704 158 728 358 c 6
 756 590 l 6
 768 682 772 758 772 776 c 7
 772 858 748 872 708 872 c 7
 594 872 490 766 410 418 c 5
 400 46 340 -54 164 -26 c 5
 136 16 l 5
 232 532 l 13
 340 1380 l 21
EndSplineSet
Fore
SplineSet
478 508 m 1
 662 538 772 620 772 776 c 0
 772 858 748 872 708 872 c 0
 594 872 490 766 410 418 c 1
 400 46 338 -76 140 -16 c 1
 132 0 l 1
 232 532 l 1
 340 1380 l 1
 176 1412 l 1
 188 1500 l 1
 536 1528 l 1
 556 1502 l 1
 480 1006 l 1
 404 692 l 1
 418 688 l 1
 486 896 640 1084 792 1084 c 0
 902 1084 972 1020 972 898 c 0
 972 668 786 534 664 488 c 1
 716 352 l 2
 768 218 806 148 846 148 c 0
 890 148 972 204 1026 296 c 1
 1076 260 l 1
 1024 100 942 -16 746 -16 c 0
 658 -16 592 132 544 268 c 2
 466 488 l 1
 478 508 l 1
EndSplineSet
EndChar

StartChar: w
Encoding: 119 119 54
Width: 1450
VWidth: 0
Flags: HMW
LayerCount: 3
Fore
SplineSet
194 424 m 1
 268 738 l 1
 290 836 302 910 262 910 c 0
 218 910 134 812 58 724 c 1
 10 762 l 1
 104 934 282 1094 422 1094 c 0
 582 1094 485 864 442 688 c 2
 388 464 l 2
 345 286 356 140 488 140 c 0
 596 140 688 222 724 576 c 1
 696 948 738 1028 916 1000 c 1
 948 958 l 1
 878 542 l 1
 888 342 l 2
 896 190 962 128 1008 128 c 0
 1152 128 1232 414 1232 636 c 0
 1232 800 1156 958 1108 1028 c 1
 1142 1054 1186 1078 1242 1078 c 0
 1334 1078 1380 936 1380 836 c 0
 1380 448 1208 -28 888 -28 c 0
 746 -28 712 92 718 232 c 1
 704 236 l 1
 650 64 516 -30 364 -30 c 0
 176 -30 130 146 194 424 c 1
EndSplineSet
Layer: 2
SplineSet
222 424 m 14
 295.326 738 l 6
 318.304 836.396 330.144 910 290.094 910 c 7
 245.688 910 162.562 812 86.8203 724 c 5
 37.6191 762 l 5
 132.387 934 309.008 1094 449.008 1094 c 7
 609.058 1094 513.51 864.608 470.38 688 c 6
 415.678 464 l 6
 372 286 384 140 516 140 c 23
 624 140 713.098 222 748.594 576 c 5
 720.044 948 761.682 1028 940.584 1000 c 5
 972.938 958 l 5
 901.524 542 l 5
 912.096 342 l 6
 920 190 989.958 128 1036 128 c 7
 1220.01 128 1228.82 394.708 1256 616 c 4
 1275.5 774.808 1200.05 957.196 1152.71 1027.26 c 5
 1187.11 1054.19 1232.73 1068.21 1288.54 1061.36 c 4
 1409.42 1046.51 1437.36 894.932 1425.05 794.724 c 4
 1370.43 350.048 1236.26 -28 916 -28 c 7
 774.236 -28 736.004 92 741.914 232 c 5
 727.5 236 l 5
 673.586 64 544 -30 392 -30 c 7
 203.48 -30 158 146 222 424 c 14
EndSplineSet
EndChar

StartChar: hyphen
Encoding: 45 45 56
Width: 690
VWidth: 0
Flags: HMW
LayerCount: 3
Fore
SplineSet
110 604 m 1
 604 626 l 1
 590 504 l 1
 96 482 l 1
 110 604 l 1
EndSplineSet
EndChar

StartChar: one
Encoding: 49 49 57
Width: 728
VWidth: 0
Flags: HMW
LayerCount: 3
Back
SplineSet
824 1302 m 5xb8
 796 1344 708 1412 614 1412 c 7
 510 1412 474 1320 474 1174 c 6
 474 1076 l 5
 754 1076 l 5
 740 968 l 5
 474 968 l 5xd8
 474 148 l 13
 666 106 l 29
 652 8 l 21
 74 8 l 13
 88 104 l 29
 272 148 l 21
 272 968 l 5
 92 968 l 5
 102 1050 l 5
 274 1094 l 5
 296 1352 510 1566 694 1566 c 7
 810 1566 906 1514 906 1434 c 7
 906 1396 888 1342 824 1302 c 5xb8
EndSplineSet
Fore
SplineSet
474 1134 m 1
 474 138 l 1
 694 98 l 1
 682 0 l 1
 60 0 l 1
 70 90 l 1
 272 146 l 1
 272 946 l 1
 84 948 l 1
 94 1042 l 1
 440 1134 l 1
 474 1134 l 1
EndSplineSet
EndChar

StartChar: semicolon
Encoding: 59 59 58
Width: 490
VWidth: 0
Flags: HMW
LayerCount: 3
Fore
SplineSet
244 1032 m 0
 320 1032 382 976 382 902 c 0
 382 824 320 762 244 762 c 0
 168 762 108 826 108 904 c 0
 108 978 170 1032 244 1032 c 0
14 -186 m 1
 130 -114 172 -12 172 60 c 0
 172 128 142 186 122 200 c 1
 174 250 222 268 266 268 c 0
 346 268 400 202 400 110 c 0
 400 2 314 -182 50 -262 c 1
 14 -186 l 1
EndSplineSet
EndChar

StartChar: exclam
Encoding: 33 33 59
Width: 598
VWidth: 0
Flags: HMW
LayerCount: 3
Back
SplineSet
514 0 m 1
 -28 0 l 1
 -8 90 l 1
 166 146 l 1
 316 1364 l 1
 138 1414 l 1
 160 1506 l 1
 708 1506 l 1
 686 1414 l 1
 510 1368 l 1
 360 138 l 17
 536 98 l 9
 514 0 l 1
EndSplineSet
Fore
SplineSet
268 400 m 1
 296 1364 l 1
 302 1492 344 1528 444 1528 c 0
 510 1528 548 1476 528 1364 c 2
 358 412 l 1
 268 400 l 1
322 258 m 0
 390 258 438 194 438 130 c 0
 438 40 372 -40 282 -40 c 0
 214 -40 168 16 168 82 c 0
 168 164 232 258 322 258 c 0
EndSplineSet
EndChar

StartChar: quotesingle
Encoding: 39 39 60
Width: 462
VWidth: 0
Flags: HMW
LayerCount: 3
Fore
SplineSet
120 1578 m 1
 136 1580 150 1580 166 1580 c 0
 224 1580 284 1572 342 1558 c 1
 298 1094 l 1
 268 1084 242 1080 208 1080 c 0
 200 1080 194 1080 184 1080 c 1
 120 1578 l 1
EndSplineSet
EndChar

StartChar: two
Encoding: 50 50 61
Width: 990
VWidth: 0
Flags: HMW
LayerCount: 3
Back
SplineSet
516 1037.71 m 7xf8
 440.788 1037.71 363.864 968.774 362 760 c 5
 260 764 200 799.836 200 878 c 31
 200 1067.38 453.866 1170 588 1170 c 7
 772 1170 896 1036 896 884 c 7xf8
 896 724 808 576 672 500 c 5
 672 482 l 5
 866 428 962 276 962 120 c 7
 962 -86 800 -296 548 -296 c 7
 422 -296 314 -274 210 -186 c 13
 264 -92 l 21
 384 -166 454 -170 528 -170 c 7
 676 -170 750 -56 750 84 c 7xf4
 750 236 648 374 488 374 c 7
 448 374 404 372 356 354 c 5
 348 382 336 422 336 472 c 5
 595.216 543.284 697.106 702.56 697.106 834 c 7
 697.106 945.954 625.49 1037.71 516 1037.71 c 7xf8
EndSplineSet
Fore
SplineSet
328 750 m 1
 208 762 158 792 158 892 c 0
 158 1032 382 1170 532 1170 c 0
 710 1170 848 1042 848 852 c 0
 848 628 734 524 494 316 c 1
 336 172 l 1
 870 172 l 1
 844 0 l 1
 128 0 l 1
 120 124 l 1
 468 472 l 1
 570 568 630 680 630 798 c 0
 630 930 572 1042 456 1042 c 0
 344 1042 328 868 328 750 c 1
EndSplineSet
EndChar

StartChar: three
Encoding: 51 51 62
Width: 978
VWidth: 0
Flags: HMW
LayerCount: 3
Back
SplineSet
190 884 m 5
 219.334 950.666 258.666 1006 308 1050 c 132
 357.334 1094 405 1124.33 451 1141 c 132
 497 1157.67 542.666 1166 588 1166 c 4
 677.334 1166 751 1138.33 809 1083 c 132
 867 1027.67 896 961.334 896 884 c 4
 896 804 875.666 729.666 835 661 c 132
 794.334 592.334 740 538.666 672 500 c 5
 672 482 l 5
 765.334 456.666 837 410.666 887 344 c 132
 937 277.334 962 202.666 962 120 c 4
 962 12 923.334 -84.333 846 -169 c 132
 768.666 -253.666 669.334 -296 548 -296 c 4
 409.334 -296 296.666 -259.334 210 -186 c 5
 264 -92 l 5
 348 -144 436 -170 528 -170 c 4
 598.666 -170 653.334 -146 692 -98 c 132
 730.666 -50 750 10.667 750 84 c 4
 750 162.667 725.666 230.666 677 288 c 132
 628.334 345.334 565.334 374 488 374 c 4
 436 374 392 367.334 356 354 c 5
 336 472 l 5
 421.334 492 503 529.666 581 585 c 132
 659 640.334 698 706 698 782 c 6
 698 786 l 6
 698 852.666 682.666 906 652 946 c 132
 621.334 986 579.334 1006 526 1006 c 4
 490 1006 455 995.666 421 975 c 132
 387 954.334 361 934 343 914 c 132
 325 894 303.334 866 278 830 c 5
 190 884 l 5
EndSplineSet
Fore
SplineSet
594 834 m 0
 594 940 524 1040 414 1040 c 0
 338 1040 260 968 258 760 c 1
 156 764 96 800 96 878 c 0
 96 1068 350 1170 484 1170 c 0
 668 1170 792 1036 792 884 c 0
 792 724 696 574 560 498 c 1
 560 480 l 1
 754 426 858 276 858 120 c 0
 858 -86 696 -296 444 -296 c 0
 156 -296 80 -162 80 -64 c 0
 80 30 192 64 240 72 c 1
 262 -52 278 -170 424 -170 c 0
 572 -170 646 -56 646 84 c 0
 646 230 538 378 384 378 c 0
 344 378 286 376 242 372 c 1
 232 406 222 438 222 478 c 0
 222 482 222 484 222 488 c 1
 258 500 594 552 594 834 c 0
EndSplineSet
EndChar

StartChar: seven
Encoding: 55 55 63
Width: 1104
VWidth: 0
Flags: HMW
LayerCount: 3
Fore
SplineSet
344 -226 m 1
 772 932 l 1
 188 932 l 1
 210 1116 l 1
 960 1116 l 1
 966 994 l 1
 462 -284 l 1
 344 -226 l 1
EndSplineSet
EndChar

StartChar: four
Encoding: 52 52 64
Width: 1226
VWidth: 0
Flags: HMW
LayerCount: 3
Back
SplineSet
922 850 m 5
 922 -156 l 21
 1142 -196 l 13
 1130 -294 l 5
 510 -294 l 5
 520 -204 l 5
 722 -148 l 5
 722 672 l 5
 536 626 l 5
 516 726 l 5
 922 850 l 5
EndSplineSet
Fore
SplineSet
732 364 m 1
 730 944 l 1
 320 360 l 1
 732 364 l 1
718 1122 m 1
 932 1158 l 1
 930 368 l 1
 1154 368 l 1
 1134 208 l 1
 932 208 l 1
 932 -138 l 1
 1140 -178 l 1
 1128 -276 l 1
 532 -276 l 1
 542 -186 l 1
 730 -130 l 1
 730 212 l 1
 174 212 l 1
 156 336 l 1
 718 1122 l 1
EndSplineSet
EndChar

StartChar: five
Encoding: 53 53 65
Width: 980
VWidth: 0
Flags: HMW
LayerCount: 3
Fore
SplineSet
400 -294 m 0
 270 -294 168 -252 30 -128 c 1
 88 -28 l 1
 212 -116 266 -158 378 -158 c 0
 514 -158 626 -30 626 108 c 0
 626 258 514 422 172 450 c 1
 282 1122 l 1
 748 1122 l 2
 782 1122 808 1126 824 1132 c 1
 828 1116 828 1090 828 1076 c 0
 828 998 778 940 642 940 c 0
 638 940 636 940 634 940 c 2
 368 942 l 1
 316 612 l 1
 700 558 838 364 838 168 c 0
 838 -62 632 -294 400 -294 c 0
EndSplineSet
EndChar

StartChar: eight
Encoding: 56 56 66
Width: 1044
VWidth: 0
Flags: HMW
LayerCount: 3
Fore
SplineSet
566 760 m 1
 638 830 672 878 672 1026 c 0
 672 1164 586 1268 488 1268 c 0
 412 1268 322 1218 322 1112 c 0
 322 956 438 854 566 760 c 1
354 664 m 1
 246 752 154 854 154 992 c 0
 154 1194 304 1364 520 1364 c 1
 710 1360 844 1210 844 1064 c 0
 844 858 700 764 622 718 c 1
 760 618 896 520 896 366 c 0
 896 68 664 -32 462 -32 c 0
 280 -32 118 108 118 304 c 0
 118 496 274 608 354 664 c 1
416 616 m 1
 324 538 306 416 306 324 c 0
 306 204 408 76 516 76 c 0
 612 76 724 136 724 286 c 0
 724 412 566 506 416 616 c 1
EndSplineSet
EndChar

StartChar: six
Encoding: 54 54 67
Width: 1230
VWidth: 0
Flags: HMW
LayerCount: 3
Fore
SplineSet
626 660 m 0
 596 660 546 654 522 640 c 1
 512 670 502 702 498 738 c 1
 586 778 668 796 734 796 c 0
 946 796 1070 614 1070 420 c 0
 1070 204 920 -26 678 -26 c 0
 358 -26 212 226 212 510 c 0
 212 866 442 1272 846 1288 c 1
 872 1192 l 1
 552 1168 408 850 408 564 c 0
 408 320 508 100 686 100 c 0
 820 100 872 236 872 370 c 0
 872 544 816 660 626 660 c 0
EndSplineSet
EndChar

StartChar: nine
Encoding: 57 57 68
Width: 1230
VWidth: 0
Flags: HMW
LayerCount: 3
Back
SplineSet
624 468 m 7
 654 468 680 474 704 488 c 5
 744 390 l 21
 658 350 582 332 516 332 c 4
 304 332 202 514 202 708 c 4
 202 924 336 1154 578 1154 c 7
 898 1154 1038 902 1038 618 c 4
 1038 262 806 -144 404 -160 c 5
 376 -64 l 5
 698 -40 840 278 840 564 c 7
 840 808 748 1028 570 1028 c 7
 434 1028 364 898 364 764 c 7
 364 618 452 468 624 468 c 7
EndSplineSet
Fore
SplineSet
620 462 m 0
 662 462 710 476 732 490 c 1
 746 464 756 440 766 414 c 1
 696 360 592 332 526 332 c 0
 314 332 212 514 212 708 c 0
 212 924 378 1154 620 1154 c 0
 940 1154 1048 902 1048 618 c 0
 1048 262 816 -192 414 -208 c 1
 398 -176 392 -140 386 -104 c 1
 708 -80 850 278 850 564 c 0
 850 808 770 1028 592 1028 c 0
 456 1028 380 898 380 764 c 0
 380 618 448 462 620 462 c 0
EndSplineSet
EndChar

StartChar: zero
Encoding: 48 48 69
Width: 1196
VWidth: 0
Flags: HMW
LayerCount: 3
Fore
SplineSet
1076 564 m 0
 1076 190 854 -32 594 -32 c 0
 258 -32 120 252 120 546 c 0
 120 904 336 1148 616 1148 c 0
 914 1148 1076 940 1076 564 c 0
332 604 m 1
 336 274 454 86 622 86 c 0
 810 86 862 254 862 514 c 0
 862 828 746 1036 576 1036 c 0
 400 1036 332 864 332 604 c 1
EndSplineSet
EndChar

StartChar: question
Encoding: 63 63 70
Width: 728
VWidth: 0
Flags: HMW
LayerCount: 3
Fore
SplineSet
488 110 m 1
 474 24 396 -44 312 -44 c 0
 228 -44 172 26 186 112 c 1
 198 194 278 254 358 254 c 0
 440 254 500 192 488 110 c 1
256 1396 m 0
 266 1460 330 1560 520 1560 c 0
 708 1560 902 1350 854 1042 c 1
 808 754 466 796 438 616 c 0
 430 568 432 524 440 464 c 1
 346 444 l 1
 322 492 278 610 294 708 c 0
 338 980 694 890 734 1138 c 0
 752 1250 642 1348 570 1348 c 0
 478 1348 384 1318 324 1262 c 1
 286 1278 246 1330 256 1396 c 0
EndSplineSet
EndChar

StartChar: quotedbl
Encoding: 34 34 103
Width: 674
VWidth: 0
Flags: HMW
LayerCount: 3
Fore
SplineSet
100 1578 m 1
 116 1580 130 1580 146 1580 c 0
 204 1580 264 1572 322 1558 c 1
 278 1094 l 1
 248 1084 222 1080 188 1080 c 0
 180 1080 172 1080 164 1080 c 1
 100 1578 l 1
352 1578 m 1
 368 1580 382 1580 398 1580 c 0
 456 1580 516 1572 574 1558 c 1
 530 1094 l 1
 500 1084 474 1080 440 1080 c 0
 432 1080 426 1080 416 1080 c 1
 352 1578 l 1
EndSplineSet
EndChar

StartChar: numbersign
Encoding: 35 35 104
Width: 1138
VWidth: 0
Flags: HMW
LayerCount: 3
Fore
SplineSet
426 674 m 1
 672 674 l 1
 712 930 l 1
 464 930 l 1
 426 674 l 1
406 552 m 1
 376 328 l 1
 248 318 l 1
 280 552 l 1
 76 552 l 1
 106 674 l 1
 302 674 l 1
 340 930 l 1
 144 930 l 1
 172 1052 l 1
 360 1052 l 1
 396 1264 l 1
 520 1276 l 1
 484 1052 l 1
 732 1052 l 1
 766 1264 l 1
 890 1274 l 1
 856 1052 l 1
 1060 1052 l 1
 1032 930 l 1
 836 930 l 1
 798 674 l 1
 992 674 l 1
 964 552 l 1
 776 552 l 1
 748 328 l 1
 620 318 l 1
 652 552 l 1
 406 552 l 1
EndSplineSet
EndChar

StartChar: dollar
Encoding: 36 36 105
Width: 1082
VWidth: 0
Flags: HMW
LayerCount: 3
Fore
SplineSet
604 598 m 1
 604 104 l 1
 706 130 802 202 802 352 c 0
 802 444 716 530 604 598 c 1
500 946 m 1
 500 1432 l 1
 398 1420 330 1356 330 1214 c 0
 330 1102 390 1002 500 946 c 1
908 1072 m 1
 814 1092 l 1
 754 1324 l 2
 748 1344 692 1394 620 1418 c 1
 620 884 l 1
 812 770 1030 656 1030 428 c 0
 1030 186 834 24 602 -18 c 1
 602 -134 l 1
 482 -134 l 1
 482 -30 l 1
 480 -30 478 -30 476 -30 c 0
 300 -30 158 36 62 148 c 1
 78 472 l 1
 178 456 l 1
 240 226 l 1
 294 148 390 94 484 90 c 1
 484 638 l 1
 300 744 106 884 106 1126 c 0
 106 1380 288 1510 498 1534 c 1
 498 1626 l 1
 618 1626 l 1
 618 1536 l 1
 716 1528 834 1496 928 1412 c 1
 928 1402 908 1072 908 1072 c 1
EndSplineSet
EndChar

StartChar: percent
Encoding: 37 37 106
Width: 1306
VWidth: 0
Flags: HMW
LayerCount: 3
Back
SplineSet
278.02 1086.38 m 7x3f80
 154.961 1086.38 132.641 986.89 132.641 892.382 c 7
 132.641 774.166 179.154 669.78 291.812 669.78 c 7
 404.148 669.78 436.96 762.748 436.96 870.166 c 7
 436.96 998.726 381.046 1086.38 278.02 1086.38 c 7x3f80
294.03 1177.32 m 7
 483.29 1177.32 554.718 1029.81 554.718 884.092 c 7
 554.718 705.638 452.102 578 276 578 c 7
 98.9512 578 13.0039 728.382 13.0039 877.758 c 7
 13.0039 1014.71 99.9814 1177.32 294.03 1177.32 c 7
1006.21 476.604 m 7
 899.946 476.604 860.828 379.112 860.828 284.604 c 7
 860.828 166.387 924 62 1020 62 c 7x7f80
 1132.07 62 1165.15 154.969 1165.15 262.386 c 7
 1165.15 390.948 1104 476.604 1006.21 476.604 c 7
1022.22 569.538 m 7
 1211.48 569.538 1280.91 422.034 1280.91 276.312 c 7
 1280.91 97.8594 1179.42 -29.7793 1004.19 -29.7793 c 7
 827.138 -29.7793 741.192 120.604 741.192 269.978 c 7
 741.192 406.932 839.01 569.538 1022.22 569.538 c 7
968 1162 m 5
 1104 1170 l 13
 308 -26 l 21
 166 -34 l 5xbf80
 968 1162 l 5
EndSplineSet
Fore
SplineSet
992 1162 m 1
 1154 1172 l 1
 324 -26 l 1
 156 -36 l 1
 992 1162 l 1
316 1178 m 0
 520 1178 594 1026 594 878 c 0
 594 698 488 568 296 568 c 0
 102 568 14 720 14 872 c 0
 14 1012 104 1178 316 1178 c 0
298 1066 m 0
 182 1066 154 988 154 888 c 0
 154 776 202 680 312 680 c 0
 424 680 456 764 456 866 c 0
 456 986 400 1066 298 1066 c 0
1050 574 m 0
 1244 574 1320 426 1320 280 c 0
 1320 100 1212 -28 1022 -28 c 0
 830 -28 740 124 740 272 c 0
 740 410 852 574 1050 574 c 0
1024 464 m 0
 938 464 880 420 880 288 c 0
 880 176 928 82 1038 82 c 0
 1150 82 1184 166 1184 266 c 0
 1184 386 1126 464 1024 464 c 0
EndSplineSet
EndChar

StartChar: ampersand
Encoding: 38 38 107
Width: 1540
VWidth: 0
Flags: HMW
LayerCount: 3
Fore
SplineSet
742 936 m 1
 868 1012 932 1080 950 1196 c 0
 970 1324 912 1438 784 1438 c 0
 674 1438 602 1332 588 1240 c 0
 570 1124 676 998 742 936 c 1
572 762 m 1
 554 764 l 1
 464 708 346 606 326 476 c 0
 300 308 370 128 554 128 c 0
 736 128 894 296 926 342 c 1
 572 762 l 1
1492 876 m 1
 1170 428 l 1
 1232 348 1410 129 1514 96 c 2
 1552 84 l 1
 1520 0 l 1
 1466 -18 1416 -24 1370 -24 c 0
 1236 -24 1116 112 1000 264 c 1
 902 152 730 -24 458 -24 c 0
 190 -24 48 164 82 380 c 0
 120 616 342 764 508 850 c 1
 446 910 362 1036 384 1180 c 0
 412 1360 616 1540 824 1540 c 0
 1018 1540 1198 1464 1160 1224 c 0
 1134 1066 958 948 814 868 c 1
 812 854 l 1
 1098 512 l 1
 1358 872 l 1
 1162 922 l 1
 1188 1014 l 1
 1732 1014 l 1
 1706 922 l 1
 1492 876 l 1
EndSplineSet
EndChar

StartChar: parenleft
Encoding: 40 40 108
Width: 574
VWidth: 0
Flags: HMW
LayerCount: 3
Fore
SplineSet
546 -384 m 1
 462 -454 l 1
 400 -396 60 -84 60 540 c 0
 60 1176 388 1452 468 1520 c 1
 528 1440 l 1
 424 1304 276 1066 276 552 c 0
 276 48 492 -296 546 -384 c 1
EndSplineSet
EndChar

StartChar: parenright
Encoding: 41 41 109
Width: 574
VWidth: 0
Flags: HMW
LayerCount: 3
Fore
SplineSet
28 1450 m 1
 112 1520 l 1
 174 1462 514 1150 514 526 c 0
 514 -110 186 -386 106 -454 c 1
 46 -374 l 1
 150 -238 298 0 298 514 c 0
 298 1018 82 1362 28 1450 c 1
EndSplineSet
EndChar

StartChar: asterisk
Encoding: 42 42 110
Width: 744
VWidth: 0
Flags: HMW
LayerCount: 3
Fore
SplineSet
536 792 m 1
 386 774 l 1
 386 778 l 2
 386 782 386 786 386 790 c 0
 386 856 374 990 352 1056 c 1
 352 1060 l 1
 430 1084 l 1
 432 1082 l 1
 484 1018 524 886 536 796 c 1
 536 792 l 1
206 1466 m 1
 356 1484 l 1
 356 1478 l 1
 354 1474 354 1470 354 1466 c 0
 354 1402 368 1266 388 1202 c 1
 390 1198 l 1
 312 1172 l 1
 310 1174 l 1
 258 1240 218 1370 206 1460 c 1
 206 1466 l 1
716 1292 m 1
 734 1148 l 1
 728 1148 l 2
 724 1148 720 1148 716 1148 c 0
 650 1148 516 1136 452 1114 c 1
 448 1114 l 1
 422 1186 l 1
 424 1188 l 1
 490 1240 620 1278 710 1290 c 1
 716 1292 l 1
24 970 m 1
 6 1108 l 1
 10 1108 l 2
 14 1108 18 1108 22 1108 c 0
 88 1108 222 1120 288 1142 c 1
 292 1144 l 1
 318 1076 l 1
 314 1074 l 1
 250 1020 120 982 28 970 c 1
 24 970 l 1
EndSplineSet
EndChar

StartChar: plus
Encoding: 43 43 111
Width: 690
VWidth: 0
Flags: HMW
LayerCount: 3
Fore
SplineSet
410 496 m 1
 412 250 l 1
 278 264 l 1
 278 496 l 1
 50 496 l 1
 64 618 l 1
 278 618 l 1
 278 858 l 1
 408 844 l 1
 410 618 l 1
 636 618 l 1
 622 496 l 1
 410 496 l 1
EndSplineSet
EndChar

StartChar: slash
Encoding: 47 47 112
Width: 664
VWidth: 0
Flags: HMW
LayerCount: 3
Back
SplineSet
282 -424 m 17
 282 522 l 1
 416 508 l 1
 416 -440 l 9
 282 -424 l 17
282 654 m 17
 282 1520 l 1
 416 1506 l 1
 410 640 l 9
 282 654 l 17
EndSplineSet
Fore
SplineSet
532 1496 m 1
 692 1506 l 1
 128 -430 l 1
 -28 -440 l 1
 532 1496 l 1
EndSplineSet
EndChar

StartChar: less
Encoding: 60 60 113
Width: 810
VWidth: 0
Flags: HMW
LayerCount: 3
Back
SplineSet
580 -72 m 29
 -28 556 l 21
 -40 580 -50 604 -50 634 c 7
 -50 642 -50 652 -48 660 c 13
 592 1216 l 29
 652 1108 l 29
 88 612 l 29
 638 32 l 29
 580 -72 l 29
EndSplineSet
Fore
SplineSet
28 586 m 1
 700 1188 l 1
 764 1072 l 1
 222 584 l 1
 770 20 l 1
 690 -100 l 1
 30 552 l 1
 28 586 l 1
EndSplineSet
EndChar

StartChar: equal
Encoding: 61 61 114
Width: 830
VWidth: 0
Flags: HMW
LayerCount: 3
Fore
SplineSet
86 804 m 1
 750 804 l 1
 736 676 l 1
 72 676 l 1
 86 804 l 1
82 514 m 1
 746 514 l 1
 732 386 l 1
 68 386 l 1
 82 514 l 1
EndSplineSet
EndChar

StartChar: greater
Encoding: 62 62 115
Width: 810
VWidth: 0
Flags: HMW
LayerCount: 3
Fore
SplineSet
782 502 m 1
 110 -100 l 1
 46 18 l 1
 592 514 l 1
 40 1068 l 1
 120 1188 l 1
 780 536 l 1
 782 502 l 1
EndSplineSet
EndChar

StartChar: at
Encoding: 64 64 116
Width: 1060
VWidth: 0
Flags: HMW
LayerCount: 3
Back
SplineSet
614.76 502.04 m 17xfec0
 395.878 467.478 365.64 411.32 365.64 327.8 c 3
 365.64 257.24 400.2 224.122 463.56 224.122 c 3
 534.122 224.122 591.72 291.8 614.76 322.04 c 1
 614.76 502.04 l 17xfec0
838 137 m 7
 827.67 137 817.664 137.408 808 138.186 c 4
 697.924 147.041 632.04 203.824 632.04 251.478 c 2
 632.04 264.44 l 1
 621.96 264.44 l 1
 584.521 198.199 476.522 129.08 384.36 129.08 c 3
 292.2 129.08 213 180.92 213 287.478 c 3xfec0
 213 415.64 299.4 504.92 614.76 562.521 c 1
 614.76 621.56 l 2
 614.76 739.64 585.96 849.08 470.76 849.08 c 3
 387.24 849.08 381.478 788.6 368.522 680.6 c 1
 322.44 680.6 249 684.92 249 771.32 c 3xfdc0
 249 866.36 420.36 936.92 541.32 936.92 c 3
 696.84 936.92 757.32 851.96 757.32 667.64 c 2
 757.32 350.84 l 2
 757.32 270.2 794.766 234.2 853.8 234.2 c 3
 980.07 234.2 988 434.064 988 578 c 27
 988 836.142 816.442 1052 526 1052 c 3
 215.838 1052 54 793.124 54 514 c 27
 54 220.476 188 -38 572 -32 c 9
 562 -132 l 17
 220 -158 -74 48.2637 -74 510 c 3
 -74 859.284 176 1150 554 1150 c 3
 904 1150 1116 930 1116 570 c 3
 1116 317.652 1028.38 152.244 861.824 138 c 4
 854.054 137.336 846.112 137 838 137 c 7
EndSplineSet
Fore
SplineSet
632 264 m 1
 622 264 l 1
 606 214 498 130 384 130 c 0
 292 130 212 180 212 288 c 0
 212 416 300 504 614 562 c 1
 614 622 l 2
 614 740 586 850 470 850 c 0
 388 850 382 788 368 680 c 1
 322 680 248 684 248 772 c 0
 248 866 420 936 542 936 c 0
 696 936 758 852 758 668 c 2
 758 350 l 2
 758 270 794 234 854 234 c 0
 980 234 988 434 988 578 c 0
 988 836 816 1052 526 1052 c 0
 216 1052 54 794 54 514 c 0
 54 224 184 -32 558 -32 c 0
 564 -32 568 -32 572 -32 c 1
 562 -132 l 1
 542 -134 524 -134 506 -134 c 0
 188 -134 -74 74 -74 510 c 0
 -74 860 176 1150 554 1150 c 0
 904 1150 1116 930 1116 570 c 0
 1116 346 1042 136 836 136 c 0
 710 136 646 192 632 264 c 1
614 502 m 1
 396 468 366 412 366 328 c 0
 366 258 400 224 464 224 c 0
 534 224 592 292 614 322 c 1
 614 502 l 1
EndSplineSet
EndChar

StartChar: bracketleft
Encoding: 91 91 117
Width: 602
VWidth: 0
Flags: HMW
LayerCount: 3
Back
SplineSet
54 96 m 29
 238 140 l 29
 238 1342 l 29
 48 1406 l 29
 62 1498 l 21
 410 1526 l 5
 440 1496 l 5
 440 1426 l 5
 440 140 l 13
 634 98 l 29
 620 0 l 21
 40 0 l 13
 54 96 l 29
EndSplineSet
Fore
SplineSet
420 -454 m 1
 184 -454 l 1
 164 -428 l 1
 402 1494 l 1
 434 1520 l 1
 668 1520 l 1
 652 1396 l 1
 520 1392 l 1
 310 -314 l 1
 436 -318 l 1
 420 -454 l 1
EndSplineSet
EndChar

StartChar: backslash
Encoding: 92 92 118
Width: 664
VWidth: 0
Flags: HMW
LayerCount: 3
Fore
SplineSet
132 1496 m 1
 692 -440 l 1
 536 -430 l 1
 -28 1506 l 1
 132 1496 l 1
EndSplineSet
EndChar

StartChar: bracketright
Encoding: 93 93 119
Width: 602
VWidth: 0
Flags: HMW
LayerCount: 3
Fore
SplineSet
72 -454 m 1
 88 -318 l 1
 214 -314 l 1
 424 1392 l 1
 294 1396 l 1
 308 1520 l 1
 542 1520 l 1
 568 1494 l 1
 334 -428 l 1
 306 -454 l 1
 72 -454 l 1
EndSplineSet
EndChar

StartChar: asciicircum
Encoding: 94 94 120
Width: 796
VWidth: 0
Flags: HMW
LayerCount: 3
Fore
SplineSet
404 1238 m 1
 324 1296 l 1
 530 1550 l 1
 552 1562 574 1572 598 1572 c 0
 604 1572 614 1572 620 1570 c 1
 790 1304 l 1
 694 1244 l 1
 562 1434 l 1
 404 1238 l 1
EndSplineSet
EndChar

StartChar: underscore
Encoding: 95 95 121
Width: 912
VWidth: 0
Flags: HMW
LayerCount: 3
Fore
SplineSet
40 -32 m 1
 874 -32 l 1
 846 -160 l 1
 14 -160 l 1
 40 -32 l 1
EndSplineSet
EndChar

StartChar: grave
Encoding: 96 96 122
Width: 374
VWidth: 0
Flags: HMW
LayerCount: 3
Back
SplineSet
420 1068 m 21
 296 1144 252 1252 252 1328 c 7
 252 1402 284 1462 306 1478 c 5
 264 1528 l 29
 10 1382 l 21
 10 1266 102 1072 382 988 c 13
 420 1068 l 21
EndSplineSet
Fore
SplineSet
188 1450 m 1
 364 1552 l 1
 378 1456 436 1232 488 1136 c 1
 408 1064 l 1
 320 1134 230 1316 188 1450 c 1
EndSplineSet
EndChar

StartChar: braceleft
Encoding: 123 123 123
Width: 584
VWidth: 0
Flags: HMW
LayerCount: 3
Fore
SplineSet
402 -454 m 1
 168 -454 l 1
 148 -428 l 1
 148 -428 178 42 230 500 c 1
 86 500 l 1
 114 640 l 1
 246 640 l 1
 306 1122 384 1494 384 1494 c 1
 416 1520 l 1
 652 1520 l 1
 628 1396 l 1
 504 1392 l 1
 504 1392 426 1016 374 592 c 0
 322 168 294 -314 294 -314 c 1
 430 -318 l 1
 402 -454 l 1
EndSplineSet
EndChar

StartChar: bar
Encoding: 124 124 124
Width: 616
VWidth: 0
Flags: HMW
LayerCount: 3
Fore
SplineSet
318 -440 m 1
 204 -424 l 1
 444 1520 l 1
 558 1506 l 1
 318 -440 l 1
EndSplineSet
EndChar

StartChar: braceright
Encoding: 125 125 125
Width: 584
VWidth: 0
Flags: HMW
LayerCount: 3
Fore
SplineSet
314 1520 m 1
 548 1520 l 1
 568 1494 l 1
 568 1494 538 1024 486 566 c 1
 630 566 l 1
 602 426 l 1
 470 426 l 1
 410 -56 332 -428 332 -428 c 1
 300 -454 l 1
 64 -454 l 1
 88 -330 l 1
 212 -326 l 1
 212 -326 290 50 342 474 c 0
 394 898 422 1380 422 1380 c 1
 286 1384 l 1
 314 1520 l 1
EndSplineSet
EndChar

StartChar: asciitilde
Encoding: 126 126 126
Width: 690
VWidth: 0
Flags: HMW
LayerCount: 3
Back
SplineSet
0 520 m 21x40
 71.3086 658.58 151.668 709.862 231.108 709.862 c 7x40
 348.194 709.862 463.282 610.184 544.45 610.184 c 7
 571.936 610.184 595.534 626.466 614 654 c 5
 690 614 l 5
 633.052 497.656 570.67 443.928 506.696 443.928 c 7x80
 404.848 443.928 280.968 544.48 186.572 544.48 c 7
 146.596 544.48 116.68 526.238 82 480 c 13
 0 520 l 21x40
EndSplineSet
Fore
SplineSet
0 500 m 1
 72 638 152 710 232 710 c 0
 348 710 446 620 528 620 c 0
 556 620 596 666 614 694 c 1
 690 668 l 1
 660 546 532 452 468 452 c 0
 366 452 280 544 186 544 c 0
 146 544 116 506 82 460 c 1
 0 500 l 1
EndSplineSet
EndChar

StartChar: exclamdown
Encoding: 161 161 161
Width: 588
VWidth: 0
Flags: HMW
LayerCount: 3
Fore
SplineSet
144 950 m 0
 144 1036 212 1104 296 1104 c 0
 380 1104 446 1034 446 948 c 0
 446 866 376 806 296 806 c 0
 214 806 144 868 144 950 c 0
242 646 m 1
 242 654 l 1
 350 630 l 1
 350 626 l 1
 380 236 414 -322 414 -454 c 0
 414 -456 414 -456 414 -458 c 0
 404 -492 298 -506 254 -506 c 0
 222 -506 176 -496 176 -458 c 0
 176 -254 210 256 242 646 c 1
EndSplineSet
EndChar

StartChar: cent
Encoding: 162 162 162
Width: 972
VWidth: 0
Flags: HMW
LayerCount: 3
Fore
SplineSet
422 228 m 1
 518 966 l 1
 402 936 336 780 336 574 c 0
 336 454 358 322 422 228 c 1
678 1084 m 1
 836 1068 906 988 906 902 c 0
 906 830 856 784 754 776 c 1
 746 812 722 898 656 944 c 1
 550 126 l 1
 584 112 624 104 668 104 c 0
 778 104 856 148 918 190 c 1
 924 180 936 152 946 120 c 1
 844 14 726 -36 558 -36 c 0
 544 -36 532 -36 520 -34 c 1
 506 -138 l 1
 362 -162 l 1
 384 2 l 1
 208 82 102 280 102 504 c 0
 102 828 306 1042 536 1082 c 1
 556 1228 l 1
 700 1254 l 1
 678 1084 l 1
EndSplineSet
EndChar

StartChar: sterling
Encoding: 163 163 163
Width: 1290
VWidth: 0
Flags: HMW
LayerCount: 3
Fore
SplineSet
1092 1466 m 1
 1054 1084 l 1
 950 1100 l 1
 900 1358 l 1
 874 1372 842 1386 798 1386 c 0
 596 1386 556 1256 548 852 c 1
 548 794 l 1
 814 810 l 1
 800 688 l 1
 546 672 l 1
 544 624 l 1
 540 432 528 238 470 120 c 1
 1028 116 l 1
 1186 422 l 1
 1290 400 l 1
 1244 0 l 1
 46 0 l 1
 56 90 l 1
 258 146 l 1
 296 268 302 378 306 558 c 2
 308 664 l 1
 92 652 l 1
 106 774 l 1
 312 786 l 1
 316 952 l 1
 328 1342 536 1514 810 1514 c 0
 908 1514 996 1506 1092 1466 c 1
EndSplineSet
EndChar

StartChar: currency
Encoding: 164 164 164
Width: 942
VWidth: 0
Flags: HMW
LayerCount: 3
Fore
SplineSet
212 398 m 1
 176 452 154 520 154 592 c 0
 154 654 174 712 204 760 c 1
 128 838 l 1
 230 920 l 1
 290 858 l 1
 346 904 414 930 476 930 c 0
 552 930 616 908 666 870 c 1
 740 940 l 1
 818 834 l 1
 750 770 l 1
 780 718 794 656 794 594 c 0
 794 530 774 468 738 414 c 1
 826 328 l 1
 722 244 l 1
 650 320 l 1
 598 286 532 262 466 262 c 0
 406 262 350 280 304 308 c 1
 234 234 l 1
 142 330 l 1
 212 398 l 1
470 812 m 0
 356 812 284 714 284 598 c 0
 284 470 356 380 472 380 c 0
 592 380 666 466 666 590 c 0
 666 704 610 812 470 812 c 0
EndSplineSet
EndChar

StartChar: yen
Encoding: 165 165 165
Width: 1220
VWidth: 0
Flags: HMW
LayerCount: 3
Fore
SplineSet
574 386 m 1
 372 372 l 1
 400 494 l 1
 590 508 l 1
 602 612 l 1
 340 1364 l 1
 208 1414 l 1
 232 1506 l 1
 742 1506 l 1
 720 1414 l 1
 554 1368 l 1
 760 776 l 1
 1098 1364 l 1
 920 1414 l 1
 942 1506 l 1
 1388 1506 l 1
 1366 1414 l 1
 1236 1368 l 1
 800 640 l 1
 786 518 l 1
 992 532 l 1
 964 410 l 1
 770 396 l 1
 738 138 l 1
 898 98 l 1
 876 0 l 1
 366 0 l 1
 388 90 l 1
 546 146 l 1
 574 386 l 1
EndSplineSet
EndChar

StartChar: brokenbar
Encoding: 166 166 166
Width: 690
VWidth: 0
Flags: HMW
LayerCount: 3
Fore
SplineSet
282 654 m 1
 282 1520 l 1
 416 1506 l 1
 410 640 l 1
 282 654 l 1
282 -424 m 1
 282 522 l 1
 416 508 l 1
 416 -440 l 1
 282 -424 l 1
EndSplineSet
EndChar

StartChar: section
Encoding: 167 167 167
Width: 890
VWidth: 0
Flags: HMW
LayerCount: 3
Fore
SplineSet
830 570 m 1
 440 794 l 1
 284 886 100 980 100 1190 c 0
 100 1418 282 1520 472 1520 c 0
 556 1520 668 1498 756 1418 c 1
 756 1410 740 1142 740 1142 c 1
 656 1158 l 1
 610 1348 l 1
 602 1370 528 1436 444 1436 c 0
 346 1436 278 1386 278 1260 c 0
 278 982 838 960 838 632 c 0
 838 606 836 592 830 570 c 1
100 958 m 1
 552 690 l 2
 692 607 836 512 836 348 c 0
 836 122 618 -20 394 -20 c 0
 254 -20 140 34 62 124 c 1
 76 386 l 1
 166 374 l 1
 212 186 l 1
 258 122 332 76 408 76 c 0
 510 76 654 122 654 286 c 0
 654 494 98 538 98 904 c 0
 98 918 98 948 100 958 c 1
EndSplineSet
EndChar

StartChar: dieresis
Encoding: 168 168 168
Width: 490
VWidth: 0
Flags: HMW
LayerCount: 3
Fore
SplineSet
266 234 m 0
 338 234 398 180 398 110 c 0
 398 36 338 -24 266 -24 c 0
 194 -24 136 38 136 112 c 0
 136 182 196 234 266 234 c 0
738 234 m 0
 810 234 870 180 870 110 c 0
 870 36 810 -24 738 -24 c 0
 666 -24 608 38 608 112 c 0
 608 182 668 234 738 234 c 0
EndSplineSet
EndChar

StartChar: copyright
Encoding: 169 169 169
Width: 1674
VWidth: 0
Flags: HMW
LayerCount: 3
Fore
SplineSet
572 802 m 0
 572 520 726 408 902 408 c 0
 986 408 1078 432 1152 492 c 1
 1166 480 1178 454 1186 436 c 1
 1086 340 962 300 842 300 c 0
 616 300 398 458 398 752 c 0
 398 970 542 1252 878 1252 c 0
 976 1252 1070 1232 1140 1178 c 1
 1122 942 l 1
 1058 950 l 1
 1030 1106 l 1
 996 1150 930 1168 836 1168 c 0
 682 1168 572 1040 572 802 c 0
1594 754 m 0
 1594 336 1258 -32 818 -32 c 0
 378 -32 80 312 80 750 c 0
 80 1216 438 1552 830 1552 c 0
 1326 1552 1594 1180 1594 754 c 0
830 1430 m 0
 482 1430 226 1120 226 764 c 0
 226 376 476 94 828 94 c 0
 1164 94 1448 364 1448 742 c 0
 1448 1090 1258 1430 830 1430 c 0
EndSplineSet
EndChar

StartChar: ordfeminine
Encoding: 170 170 170
Width: 490
VWidth: 0
Flags: HMW
LayerCount: 3
Fore
SplineSet
366 494 m 0
 310 494 290 530 290 560 c 2
 290 566 l 1
 284 566 l 1
 268 532 216 492 152 492 c 0
 102 492 58 520 58 580 c 0
 58 650 106 700 280 732 c 1
 280 764 l 2
 280 830 264 892 200 892 c 0
 154 892 152 858 144 798 c 1
 118 798 78 800 78 848 c 0
 78 900 172 940 240 940 c 0
 326 940 360 892 360 790 c 2
 360 614 l 2
 360 570 368 556 414 550 c 1
 438 546 l 1
 432 504 l 1
 408 500 394 494 366 494 c 0
280 698 m 1
 160 680 142 648 142 602 c 0
 142 562 162 544 196 544 c 0
 236 544 268 576 280 596 c 1
 280 698 l 1
42 418 m 1
 452 418 l 1
 444 348 l 1
 34 348 l 1
 42 418 l 1
EndSplineSet
EndChar

StartChar: guillemotleft
Encoding: 171 171 171
Width: 1244
VWidth: 0
Flags: HMW
LayerCount: 3
Fore
SplineSet
196 574 m 1
 668 994 l 1
 712 914 l 1
 332 572 l 1
 716 178 l 1
 660 94 l 1
 198 550 l 1
 196 574 l 1
464 574 m 1
 934 994 l 1
 980 914 l 1
 600 572 l 1
 984 178 l 1
 928 94 l 1
 466 550 l 1
 464 574 l 1
EndSplineSet
EndChar

StartChar: logicalnot
Encoding: 172 172 172
Width: 886
VWidth: 0
Flags: HMW
LayerCount: 3
Fore
SplineSet
70 804 m 1
 812 804 l 1
 814 464 l 1
 686 442 l 1
 686 676 l 1
 56 676 l 1
 70 804 l 1
EndSplineSet
EndChar

StartChar: uni00AD
Encoding: 173 173 173
Width: 690
VWidth: 0
Flags: HMW
LayerCount: 3
Fore
SplineSet
110 622 m 1
 604 622 l 1
 590 500 l 1
 96 500 l 1
 110 622 l 1
EndSplineSet
EndChar

StartChar: registered
Encoding: 174 174 174
Width: 894
VWidth: 0
Flags: HMW
LayerCount: 3
Fore
SplineSet
586 1280 m 0
 586 1234 550 1184 482 1158 c 1
 548 1068 l 1
 590 1008 608 982 654 968 c 1
 666 966 l 1
 660 940 l 1
 644 934 630 932 616 932 c 0
 560 932 520 976 488 1032 c 2
 430 1136 l 1
 366 1136 l 1
 366 986 l 1
 434 970 l 1
 432 940 l 1
 232 940 l 1
 236 968 l 1
 296 984 l 1
 296 1340 l 1
 234 1352 l 1
 238 1380 l 1
 292 1388 350 1396 404 1396 c 0
 512 1396 586 1366 586 1280 c 0
426 1168 m 2
 470 1168 512 1208 512 1260 c 0
 512 1320 474 1360 410 1360 c 0
 384 1360 366 1358 366 1358 c 1
 366 1168 l 1
 426 1168 l 2
434 1506 m 0
 256 1506 112 1336 112 1154 c 0
 112 954 252 798 432 798 c 0
 606 798 762 948 762 1142 c 0
 762 1320 654 1506 434 1506 c 0
838 1148 m 0
 838 934 654 734 428 734 c 0
 202 734 38 922 38 1146 c 0
 38 1384 234 1568 434 1568 c 0
 688 1568 838 1366 838 1148 c 0
EndSplineSet
EndChar

StartChar: macron
Encoding: 175 175 175
Width: 690
VWidth: 0
Flags: HMW
LayerCount: 3
Fore
SplineSet
110 1404 m 1
 604 1426 l 1
 590 1304 l 1
 96 1282 l 1
 110 1404 l 1
EndSplineSet
EndChar

StartChar: degree
Encoding: 176 176 176
Width: 490
VWidth: 0
Flags: HMW
LayerCount: 3
Fore
SplineSet
248 1556 m 0
 364 1556 436 1474 436 1360 c 0
 436 1250 356 1148 232 1148 c 0
 120 1148 44 1224 44 1348 c 0
 44 1460 134 1556 248 1556 c 0
234 1498 m 0
 162 1498 130 1430 130 1362 c 0
 130 1288 168 1206 246 1206 c 0
 312 1206 350 1256 350 1344 c 0
 350 1420 310 1498 234 1498 c 0
EndSplineSet
EndChar

StartChar: plusminus
Encoding: 177 177 177
Width: 690
VWidth: 0
Flags: HMW
LayerCount: 3
Fore
SplineSet
410 496 m 1
 412 250 l 1
 278 264 l 1
 278 496 l 1
 50 496 l 1
 64 618 l 1
 278 618 l 1
 278 858 l 1
 408 844 l 1
 410 618 l 1
 636 618 l 1
 622 496 l 1
 410 496 l 1
110 198 m 1
 604 198 l 1
 590 76 l 1
 96 76 l 1
 110 198 l 1
EndSplineSet
EndChar

StartChar: uni00B2
Encoding: 178 178 178
Width: 314
VWidth: 0
Flags: HMW
LayerCount: 3
Back
SplineSet
162.6 1562.4 m 5
 162.6 1263.6 l 21
 228.6 1251.6 l 13
 225 1222.2 l 5
 38.4004 1222.2 l 5
 41.4004 1249.2 l 5
 102 1266 l 5
 102 1506 l 5
 45.5996 1506.6 l 5
 48.5996 1534.8 l 5
 152.4 1562.4 l 5
 162.6 1562.4 l 5
EndSplineSet
Fore
SplineSet
96 1448 m 1
 60 1452 44 1462 44 1492 c 0
 44 1534 112 1576 158 1576 c 0
 210 1576 252 1536 252 1480 c 0
 252 1412 218 1382 146 1318 c 2
 98 1276 l 1
 258 1276 l 1
 250 1224 l 1
 36 1224 l 1
 34 1262 l 1
 138 1366 l 1
 168 1394 186 1428 186 1464 c 0
 186 1504 170 1536 134 1536 c 0
 100 1536 96 1484 96 1448 c 1
EndSplineSet
EndChar

StartChar: uni00B3
Encoding: 179 179 179
Width: 728
VWidth: 0
Flags: HMW
LayerCount: 3
Back
SplineSet
96 1449 m 5
 60 1452.6 45 1461.6 45 1491.6 c 7
 45 1533.6 112.199 1575 157.199 1575 c 7
 210.6 1575 252 1536.6 252 1479.6 c 7
 252 1412.4 217.798 1381.2 145.799 1318.8 c 6
 98.4004 1275.6 l 13
 258.6 1275.6 l 21
 250.798 1224 l 13
 36 1224 l 29
 33.5996 1261.2 l 21
 138 1365.6 l 22
 168.6 1394.4 186.6 1428 186.6 1463.4 c 7
 186.6 1503 169.199 1536.6 134.4 1536.6 c 7
 100.799 1536.6 96 1484.4 96 1449 c 5
EndSplineSet
Fore
SplineSet
200 1474 m 0
 200 1506 180 1536 146 1536 c 0
 124 1536 100 1514 100 1452 c 1
 68 1454 50 1464 50 1488 c 0
 50 1544 128 1576 168 1576 c 0
 222 1576 260 1534 260 1490 c 0
 260 1442 230 1396 190 1374 c 1
 190 1368 l 1
 248 1352 280 1306 280 1260 c 0
 280 1198 230 1136 156 1136 c 0
 68 1136 46 1176 46 1204 c 0
 46 1232 80 1244 94 1246 c 1
 100 1208 106 1172 150 1172 c 0
 194 1172 216 1208 216 1250 c 0
 216 1292 184 1338 138 1338 c 0
 126 1338 108 1336 94 1336 c 1
 92 1346 88 1356 88 1368 c 2
 88 1370 l 1
 100 1374 200 1390 200 1474 c 0
EndSplineSet
EndChar

StartChar: acute
Encoding: 180 180 180
Width: 448
VWidth: 0
Flags: HMW
LayerCount: 3
Fore
SplineSet
420 1450 m 1
 350 1316 214 1134 98 1064 c 1
 10 1136 l 1
 86 1232 190 1456 222 1552 c 1
 420 1450 l 1
EndSplineSet
EndChar

StartChar: uni00B5
Encoding: 181 181 181
Width: 1248
VWidth: 0
Flags: HMW
LayerCount: 3
Fore
SplineSet
194 598 m 2
 194 892 l 1
 28 958 l 1
 44 1054 l 1
 370 1080 l 1
 398 1050 l 1
 398 382 l 2
 398 200 476 128 586 128 c 0
 696 128 750 180 812 228 c 1
 812 886 l 1
 618 936 l 1
 630 1046 l 1
 986 1080 l 1
 1012 1050 l 1
 1012 258 l 2
 1012 130 1064 124 1144 106 c 2
 1198 94 l 1
 1188 -8 l 1
 1112 -26 1076 -30 1004 -30 c 0
 882 -30 826 46 826 146 c 0
 826 152 826 150 826 156 c 1
 812 156 l 1
 702 34 600 -30 464 -30 c 0
 388 -30 332 -4 294 46 c 1
 284 46 l 1
 288 24 296 -26 302 -104 c 1
 324 -470 l 1
 162 -438 l 1
 164 -406 194 244 194 598 c 2
EndSplineSet
EndChar

StartChar: paragraph
Encoding: 182 182 182
Width: 1678
VWidth: 0
Flags: HMW
LayerCount: 3
Fore
SplineSet
822 1396 m 1
 772 1398 706 1398 694 1398 c 0
 434 1398 308 1282 308 1066 c 0
 308 860 422 700 686 700 c 0
 736 700 814 708 814 708 c 1
 822 702 l 1
 822 1396 l 1
1498 1506 m 1
 1486 1414 l 1
 1280 1368 l 1
 1280 138 l 1
 1500 98 l 1
 1488 0 l 1
 610 0 l 1
 620 90 l 1
 822 146 l 1
 822 588 l 1
 770 584 716 582 664 582 c 0
 348 582 58 668 58 1022 c 0
 58 1310 302 1508 596 1508 c 2
 1498 1506 l 1
1052 1374 m 1
 1024 1368 l 1
 1024 138 l 1
 1050 134 l 1
 1096 146 l 1
 1096 1364 l 1
 1052 1374 l 1
EndSplineSet
EndChar

StartChar: periodcentered
Encoding: 183 183 183
Width: 490
VWidth: 0
Flags: HMW
LayerCount: 3
Fore
SplineSet
244 748 m 0
 324 748 390 688 390 610 c 0
 390 528 324 462 244 462 c 0
 164 462 100 530 100 612 c 0
 100 690 166 748 244 748 c 0
EndSplineSet
EndChar

StartChar: cedilla
Encoding: 184 184 184
Width: 448
VWidth: 0
Flags: HMW
LayerCount: 3
Fore
SplineSet
36 -62 m 1
 134 34 288 228 358 324 c 1
 446 252 l 1
 416 130 296 -74 234 -164 c 1
 36 -62 l 1
EndSplineSet
EndChar

StartChar: uni00B9
Encoding: 185 185 185
Width: 268
VWidth: 0
Flags: HMW
LayerCount: 3
Fore
SplineSet
162 1562 m 1
 162 1264 l 1
 228 1252 l 1
 224 1222 l 1
 38 1222 l 1
 42 1250 l 1
 102 1266 l 1
 102 1506 l 1
 46 1506 l 1
 48 1534 l 1
 152 1562 l 1
 162 1562 l 1
EndSplineSet
EndChar

StartChar: ordmasculine
Encoding: 186 186 186
Width: 490
VWidth: 0
Flags: HMW
LayerCount: 3
Fore
SplineSet
428 712 m 0
 428 578 346 486 234 486 c 0
 106 486 46 580 46 706 c 0
 46 856 140 936 246 936 c 0
 366 936 428 846 428 712 c 0
134 728 m 0
 134 610 182 534 246 534 c 0
 308 534 340 592 340 696 c 0
 340 806 298 886 228 886 c 0
 168 886 134 834 134 728 c 0
42 418 m 1
 452 418 l 1
 444 348 l 1
 34 348 l 1
 42 418 l 1
EndSplineSet
EndChar

StartChar: guillemotright
Encoding: 187 187 187
Width: 1206
VWidth: 0
Flags: HMW
LayerCount: 3
Fore
SplineSet
724 514 m 1
 254 94 l 1
 208 176 l 1
 590 524 l 1
 204 910 l 1
 260 994 l 1
 722 538 l 1
 724 514 l 1
970 514 m 1
 500 94 l 1
 454 176 l 1
 836 524 l 1
 450 910 l 1
 506 994 l 1
 968 538 l 1
 970 514 l 1
EndSplineSet
EndChar

StartChar: onequarter
Encoding: 188 188 188
Width: 1266
VWidth: 0
Flags: HMW
LayerCount: 3
Fore
SplineSet
1004 1162 m 1
 1132 1172 l 1
 302 -26 l 1
 168 -36 l 1
 1004 1162 l 1
288 1176 m 1
 288 678 l 1
 396 658 l 1
 392 608 l 1
 80 608 l 1
 84 654 l 1
 186 682 l 1
 186 1082 l 1
 92 1084 l 1
 96 1130 l 1
 270 1176 l 1
 288 1176 l 1
976 180 m 1
 974 472 l 1
 768 180 l 1
 976 180 l 1
968 560 m 1
 1076 578 l 1
 1074 184 l 1
 1186 184 l 1
 1176 104 l 1
 1076 104 l 1
 1076 -70 l 1
 1180 -90 l 1
 1172 -140 l 1
 876 -140 l 1
 880 -94 l 1
 974 -66 l 1
 974 104 l 1
 696 104 l 1
 688 168 l 1
 968 560 l 1
EndSplineSet
EndChar

StartChar: onehalf
Encoding: 189 189 189
Width: 1268
VWidth: 0
Flags: HMW
LayerCount: 3
Fore
SplineSet
1004 1162 m 1
 1132 1172 l 1
 300 -26 l 1
 168 -36 l 1
 1004 1162 l 1
286 1176 m 1
 286 678 l 1
 396 658 l 1
 390 608 l 1
 80 608 l 1
 84 654 l 1
 184 682 l 1
 184 1082 l 1
 92 1084 l 1
 96 1130 l 1
 268 1176 l 1
 286 1176 l 1
916 376 m 1
 856 380 832 396 832 446 c 0
 832 516 944 584 1020 584 c 0
 1108 584 1176 520 1176 426 c 0
 1176 314 1120 262 1000 158 c 1
 920 86 l 1
 1188 86 l 1
 1176 0 l 1
 816 0 l 1
 812 62 l 1
 988 236 l 1
 1038 284 1068 340 1068 400 c 0
 1068 464 1040 520 980 520 c 0
 924 520 916 434 916 376 c 1
EndSplineSet
EndChar

StartChar: threequarters
Encoding: 190 190 190
Width: 1280
VWidth: 0
Flags: HMW
LayerCount: 3
Fore
SplineSet
336 1026 m 0
 336 1080 302 1128 248 1128 c 0
 208 1128 170 1092 168 988 c 1
 118 992 88 1008 88 1048 c 0
 88 1144 216 1194 282 1194 c 0
 374 1194 436 1128 436 1052 c 0
 436 972 388 896 320 858 c 1
 320 848 l 1
 416 822 468 748 468 668 c 0
 468 566 388 460 262 460 c 0
 118 460 80 528 80 576 c 0
 80 624 136 640 160 644 c 1
 172 584 180 524 252 524 c 0
 326 524 364 580 364 652 c 0
 364 724 308 798 232 798 c 0
 212 798 184 796 160 796 c 1
 156 812 152 828 152 848 c 0
 152 850 152 852 152 852 c 1
 168 860 336 884 336 1026 c 0
982 560 m 1
 1088 578 l 1
 1088 184 l 1
 1200 184 l 1
 1190 104 l 1
 1088 104 l 1
 1088 -70 l 1
 1192 -90 l 1
 1188 -140 l 1
 888 -140 l 1
 894 -94 l 1
 988 -66 l 1
 988 104 l 1
 710 104 l 1
 700 168 l 1
 982 560 l 1
988 180 m 1
 988 472 l 1
 784 180 l 1
 988 180 l 1
1018 1162 m 1
 1146 1172 l 1
 316 -26 l 1
 182 -36 l 1
 1018 1162 l 1
EndSplineSet
EndChar

StartChar: questiondown
Encoding: 191 191 191
Width: 930
VWidth: 0
Flags: HMW
LayerCount: 3
Fore
SplineSet
326 950 m 0
 326 1036 394 1104 478 1104 c 0
 562 1104 628 1034 628 948 c 0
 628 866 558 806 478 806 c 0
 396 806 326 868 326 950 c 0
386 564 m 1
 380 568 l 1
 386 572 l 1
 426 608 464 624 502 624 c 0
 608 624 688 512 688 414 c 0
 688 200 318 70 318 -178 c 0
 318 -290 410 -378 492 -378 c 0
 584 -378 648 -316 656 -152 c 1
 656 -146 l 1
 662 -146 l 2
 728 -146 834 -154 834 -278 c 0
 834 -398 600 -510 410 -510 c 0
 222 -510 112 -368 112 -206 c 0
 112 82 488 196 488 376 c 0
 488 424 454 504 386 564 c 1
EndSplineSet
EndChar

StartChar: Aring
Encoding: 197 197 198
Width: 1546
VWidth: 0
Flags: HMW
LayerCount: 3
Fore
SplineSet
528 632 m 1
 958 632 l 1
 756 1240 l 1
 528 632 l 1
808 1706 m 0
 750 1706 724 1650 724 1596 c 0
 724 1536 754 1472 816 1472 c 0
 868 1472 898 1512 898 1582 c 0
 898 1642 868 1706 808 1706 c 0
820 1752 m 0
 912 1752 970 1686 970 1594 c 0
 970 1546 952 1502 918 1470 c 1
 1372 150 l 1
 1536 98 l 1
 1526 0 l 1
 904 0 l 1
 918 90 l 1
 1126 156 l 1
 1002 510 l 1
 484 510 l 1
 350 150 l 1
 576 98 l 1
 562 0 l 1
 10 0 l 1
 22 90 l 1
 186 156 l 1
 706 1460 l 1
 676 1488 658 1532 658 1586 c 0
 658 1676 728 1752 820 1752 c 0
EndSplineSet
EndChar

StartChar: germandbls
Encoding: 223 223 222
Width: 1520
VWidth: 0
Flags: HMW
LayerCount: 3
Fore
SplineSet
1084 1236 m 0
 1084 1036 940 922 940 844 c 0
 940 636 1472 612 1472 280 c 0
 1472 100 1284 -42 1098 -42 c 0
 882 -42 748 60 748 170 c 0
 748 252 836 304 908 310 c 1
 946 152 1044 78 1136 78 c 0
 1222 78 1296 128 1296 228 c 0
 1296 398 776 444 776 770 c 0
 776 906 896 974 896 1164 c 0
 896 1304 804 1440 668 1440 c 0
 560 1440 448 1380 448 1166 c 2
 448 146 l 1
 694 102 l 1
 684 0 l 1
 48 0 l 1
 62 88 l 1
 246 140 l 1
 246 960 l 1
 82 960 l 1
 92 1042 l 1
 248 1082 l 1
 268 1324 460 1562 694 1562 c 0
 964 1562 1084 1434 1084 1236 c 0
EndSplineSet
EndChar

StartChar: uniF002
Encoding: 61442 61442 255
Width: 1432
VWidth: 0
Flags: HMW
LayerCount: 3
Back
SplineSet
608 1434 m 7x8e
 503.828 1434 448 1312 448 1166 c 6
 448 1068 l 5
 686 1067.19 l 6
 754.026 1067.01 990 1074 1074 1080 c 5
 1104 1050 l 5
 1104 140 l 13
 1298 98 l 29
 1284 0 l 21
 716 0 l 13
 730 96 l 29
 902 140 l 29
 902 892 l 21
 698 958 l 29
 448 960 l 5xce
 448 140 l 13
 628 98 l 29
 614 0 l 21
 48 0 l 13
 62 96 l 29
 246 140 l 21
 246 960 l 5
 66 960 l 5
 76 1042 l 5
 248 1086 l 5
 270 1344 484 1580 668 1580 c 7xae
 818.756 1580 877.816 1541.52 988 1541.52 c 7x96
 1026.92 1541.52 1066.23 1547.64 1108 1562 c 5
 1130 1528 1148 1477.11 1148 1434 c 7x8e
 1148 1343.97 1084.87 1286 1002 1286 c 7x96
 857.652 1286 744.368 1434 608 1434 c 7x8e
EndSplineSet
Fore
SplineSet
1062 1538 m 1
 1092 1508 l 1
 1092 1438 l 1
 1092 140 l 1
 1286 98 l 1
 1272 0 l 1
 710 0 l 1
 724 96 l 1
 890 140 l 1
 890 1320 l 1
 838 1356 718 1432 630 1432 c 0
 566 1432 448 1402 448 1166 c 2
 448 1068 l 1
 728 1068 l 1
 714 960 l 1
 448 960 l 1
 448 140 l 1
 622 98 l 1
 608 0 l 1
 48 0 l 1
 62 96 l 1
 246 140 l 1
 246 960 l 1
 66 960 l 1
 76 1042 l 1
 248 1086 l 1
 270 1344 484 1578 668 1578 c 0
 834 1578 868 1536 1016 1536 c 0
 1030 1536 1046 1538 1062 1538 c 1
EndSplineSet
LCarets2: 1 712 
Ligature2: "'liga' Standard Ligatures in Latin lookup 0-1" f l
EndChar

StartChar: Ccaron
Encoding: 268 268 266
Width: 1116
VWidth: 0
Flags: HMW
LayerCount: 3
Fore
SplineSet
760 1998 m 1
 918 1802 l 1
 1050 1992 l 1
 1146 1932 l 1
 976 1666 l 1
 970 1664 960 1664 954 1664 c 0
 930 1664 908 1674 886 1686 c 1
 680 1940 l 1
 760 1998 l 1
EndSplineSet
Refer: 2 67 N 1 0 0 1 0 0 3
EndChar

StartChar: ccaron
Encoding: 269 269 267
Width: 760
VWidth: 0
Flags: HMW
LayerCount: 3
Fore
SplineSet
434 1538 m 1
 592 1342 l 1
 724 1532 l 1
 820 1472 l 1
 650 1206 l 1
 644 1204 634 1204 628 1204 c 0
 604 1204 582 1214 560 1226 c 1
 354 1480 l 1
 434 1538 l 1
EndSplineSet
Refer: 28 99 N 1 0 0 1 0 0 3
EndChar

StartChar: Dcaron
Encoding: 270 270 268
Width: 1332
VWidth: 0
Flags: HMW
LayerCount: 3
Fore
SplineSet
716 1998 m 1
 874 1802 l 1
 1006 1992 l 1
 1102 1932 l 1
 932 1666 l 1
 926 1664 916 1664 910 1664 c 0
 886 1664 864 1674 842 1686 c 1
 636 1940 l 1
 716 1998 l 1
EndSplineSet
Refer: 3 68 N 1 0 0 1 0 0 3
EndChar

StartChar: Ecaron
Encoding: 282 282 274
Width: 1082
VWidth: 0
Flags: HMW
LayerCount: 3
Fore
SplineSet
596 1998 m 1
 754 1802 l 1
 886 1992 l 1
 982 1932 l 1
 812 1666 l 1
 806 1664 796 1664 790 1664 c 0
 766 1664 744 1674 722 1686 c 1
 516 1940 l 1
 596 1998 l 1
EndSplineSet
Refer: 4 69 N 1 0 0 1 0 0 3
EndChar

StartChar: ecaron
Encoding: 283 283 275
Width: 784
VWidth: 0
Flags: HMW
LayerCount: 3
Fore
SplineSet
408 1538 m 1
 566 1342 l 1
 698 1532 l 1
 794 1472 l 1
 624 1206 l 1
 618 1204 608 1204 602 1204 c 0
 578 1204 556 1214 534 1226 c 1
 328 1480 l 1
 408 1538 l 1
EndSplineSet
Refer: 30 101 N 1 0 0 1 0 0 3
EndChar

StartChar: Ncaron
Encoding: 327 327 302
Width: 1346
VWidth: 0
Flags: HMW
LayerCount: 3
Fore
SplineSet
748 1998 m 1
 906 1802 l 1
 1038 1992 l 1
 1134 1932 l 1
 964 1666 l 1
 958 1664 948 1664 942 1664 c 0
 918 1664 896 1674 874 1686 c 1
 668 1940 l 1
 748 1998 l 1
EndSplineSet
Refer: 13 78 N 1 0 0 1 0 0 3
EndChar

StartChar: ncaron
Encoding: 328 328 303
Width: 1174
VWidth: 0
Flags: HMW
LayerCount: 3
Fore
SplineSet
532 1538 m 1
 690 1342 l 1
 822 1532 l 1
 918 1472 l 1
 748 1206 l 1
 742 1204 732 1204 726 1204 c 0
 702 1204 680 1214 658 1226 c 1
 452 1480 l 1
 532 1538 l 1
EndSplineSet
Refer: 38 110 N 1 0 0 1 0 0 3
EndChar

StartChar: Rcaron
Encoding: 344 344 310
Width: 1222
VWidth: 0
Flags: HMW
LayerCount: 3
Fore
SplineSet
560 1998 m 1
 718 1802 l 1
 850 1992 l 1
 946 1932 l 1
 776 1666 l 1
 770 1664 760 1664 754 1664 c 0
 730 1664 708 1674 686 1686 c 1
 480 1940 l 1
 560 1998 l 1
EndSplineSet
Refer: 17 82 N 1 0 0 1 0 0 3
EndChar

StartChar: rcaron
Encoding: 345 345 311
Width: 856
VWidth: 0
Flags: HMW
LayerCount: 3
Fore
SplineSet
372 1544 m 1
 530 1348 l 1
 662 1538 l 1
 758 1478 l 1
 588 1212 l 1
 582 1210 572 1210 566 1210 c 0
 542 1210 520 1220 498 1232 c 1
 292 1486 l 1
 372 1544 l 1
EndSplineSet
Refer: 42 114 N 1 0 0 1 0 0 3
EndChar

StartChar: Scaron
Encoding: 352 352 318
Width: 898
VWidth: 0
Flags: HMW
LayerCount: 3
Fore
SplineSet
534 1998 m 1
 692 1802 l 1
 824 1992 l 1
 920 1932 l 1
 750 1666 l 1
 744 1664 734 1664 728 1664 c 0
 704 1664 682 1674 660 1686 c 1
 454 1940 l 1
 534 1998 l 1
EndSplineSet
Refer: 18 83 N 1 0 0 1 0 0 3
EndChar

StartChar: scaron
Encoding: 353 353 319
Width: 838
VWidth: 0
Flags: HMW
LayerCount: 3
Fore
SplineSet
376 1538 m 1
 534 1342 l 1
 666 1532 l 1
 762 1472 l 1
 592 1206 l 1
 586 1204 576 1204 570 1204 c 0
 546 1204 524 1214 502 1226 c 1
 296 1480 l 1
 376 1538 l 1
EndSplineSet
Refer: 43 115 N 1 0 0 1 0 0 3
EndChar

StartChar: Tcaron
Encoding: 356 356 322
Width: 1126
VWidth: 0
Flags: HMW
LayerCount: 3
Fore
SplineSet
628 1998 m 1
 786 1802 l 1
 918 1992 l 1
 1014 1932 l 1
 844 1666 l 1
 838 1664 828 1664 822 1664 c 0
 798 1664 776 1674 754 1686 c 1
 548 1940 l 1
 628 1998 l 1
EndSplineSet
Refer: 19 84 N 1 0 0 1 0 0 3
EndChar

StartChar: Uring
Encoding: 366 366 328
Width: 1658
VWidth: 0
Flags: HMW
LayerCount: 3
Fore
SplineSet
940 1522 m 1
 924 1552 910 1590 910 1632 c 0
 910 1744 1004 1840 1118 1840 c 0
 1234 1840 1306 1758 1306 1644 c 0
 1306 1590 1288 1542 1254 1506 c 1
 1658 1506 l 1
 1644 1414 l 1
 1442 1368 l 1
 1434 604 l 2
 1429 138 1182 -32 810 -32 c 0
 582 -32 234 58 234 568 c 2
 234 1364 l 1
 10 1414 l 1
 26 1506 l 1
 682 1506 l 1
 670 1414 l 1
 466 1368 l 1
 466 598 l 2
 466 252 640 112 888 112 c 0
 1252 112 1282 394 1282 582 c 2
 1284 1364 l 1
 1064 1414 l 1
 1076 1506 l 1
 1112 1506 l 2
 1178 1506 1220 1540 1220 1628 c 0
 1220 1704 1180 1782 1104 1782 c 0
 1032 1782 1002 1714 1002 1646 c 0
 1002 1618 1008 1588 1020 1562 c 1
 940 1522 l 1
EndSplineSet
EndChar

StartChar: uring
Encoding: 367 367 329
Width: 1248
VWidth: 0
Flags: HMW
LayerCount: 3
Fore
SplineSet
708 1056 m 2
 764 1062 828 1096 828 1184 c 0
 828 1260 792 1334 716 1334 c 0
 644 1334 608 1270 608 1202 c 0
 608 1172 614 1142 628 1114 c 1
 548 1084 l 1
 530 1116 516 1142 516 1188 c 0
 516 1300 612 1396 726 1396 c 0
 842 1396 916 1314 916 1200 c 0
 916 1150 892 1104 854 1070 c 1
 986 1082 l 1
 1012 1052 l 1
 1012 260 l 2
 1012 132 1064 126 1144 108 c 2
 1198 96 l 1
 1188 -6 l 1
 1112 -24 1076 -28 1004 -28 c 0
 882 -28 826 48 826 148 c 0
 826 154 826 152 826 158 c 1
 812 158 l 1
 702 36 600 -28 464 -28 c 0
 308 -28 194 64 194 324 c 2
 194 894 l 1
 28 960 l 1
 44 1056 l 1
 370 1082 l 1
 398 1052 l 1
 398 384 l 2
 398 202 476 138 586 138 c 0
 696 138 750 182 812 230 c 1
 812 888 l 1
 618 938 l 1
 630 1048 l 1
 708 1056 l 2
EndSplineSet
EndChar

StartChar: Zcaron
Encoding: 381 381 339
Width: 1014
VWidth: 0
Flags: HMW
LayerCount: 3
Fore
SplineSet
586 1998 m 1
 744 1802 l 1
 876 1992 l 1
 972 1932 l 1
 802 1666 l 1
 796 1664 786 1664 780 1664 c 0
 756 1664 734 1674 712 1686 c 1
 506 1940 l 1
 586 1998 l 1
EndSplineSet
Refer: 25 90 N 1 0 0 1 0 0 3
EndChar

StartChar: zcaron
Encoding: 382 382 340
Width: 946
VWidth: 0
Flags: HMW
LayerCount: 3
Fore
SplineSet
308 1538 m 1
 466 1342 l 1
 598 1532 l 1
 694 1472 l 1
 524 1206 l 1
 518 1204 508 1204 502 1204 c 0
 478 1204 456 1214 434 1226 c 1
 228 1480 l 1
 308 1538 l 1
EndSplineSet
Refer: 49 122 N 1 0 0 1 0 0 3
EndChar

StartChar: uni01CD
Encoding: 461 461 345
Width: 1284
VWidth: 0
Flags: HMW
LayerCount: 3
Fore
SplineSet
772 1998 m 1
 930 1802 l 1
 1062 1992 l 1
 1158 1932 l 1
 988 1666 l 1
 982 1664 972 1664 966 1664 c 0
 942 1664 920 1674 898 1686 c 1
 692 1940 l 1
 772 1998 l 1
EndSplineSet
Refer: 0 65 N 1 0 0 1 0 0 3
EndChar

StartChar: uni01CE
Encoding: 462 462 346
Width: 1038
VWidth: 0
Flags: HMW
LayerCount: 3
Fore
SplineSet
378 1542 m 1
 536 1346 l 1
 668 1536 l 1
 764 1476 l 1
 594 1210 l 1
 588 1208 578 1208 572 1208 c 0
 548 1208 526 1218 504 1230 c 1
 298 1484 l 1
 378 1542 l 1
EndSplineSet
Refer: 26 97 N 1 0 0 1 0 0 3
EndChar

StartChar: uni01CF
Encoding: 463 463 347
Width: 608
VWidth: 0
Flags: HMW
LayerCount: 3
Fore
SplineSet
370 1998 m 1
 528 1802 l 1
 660 1992 l 1
 756 1932 l 1
 586 1666 l 1
 580 1664 570 1664 564 1664 c 0
 540 1664 518 1674 496 1686 c 1
 290 1940 l 1
 370 1998 l 1
EndSplineSet
Refer: 8 73 N 1 0 0 1 0 0 3
EndChar

StartChar: uni01D0
Encoding: 464 464 348
Width: 694
VWidth: 0
Flags: HMW
LayerCount: 3
Fore
SplineSet
228 1538 m 1
 386 1342 l 1
 518 1532 l 1
 614 1472 l 1
 444 1206 l 1
 438 1204 428 1204 422 1204 c 0
 398 1204 376 1214 354 1226 c 1
 148 1480 l 1
 228 1538 l 1
EndSplineSet
Refer: 412 305 N 1 0 0 1 0 0 3
EndChar

StartChar: uni01D1
Encoding: 465 465 349
Width: 1348
VWidth: 0
Flags: HMW
LayerCount: 3
Fore
SplineSet
776 1998 m 1
 934 1802 l 1
 1066 1992 l 1
 1162 1932 l 1
 992 1666 l 1
 986 1664 976 1664 970 1664 c 0
 946 1664 924 1674 902 1686 c 1
 696 1940 l 1
 776 1998 l 1
EndSplineSet
Refer: 14 79 N 1 0 0 1 0 0 3
EndChar

StartChar: uni01D2
Encoding: 466 466 350
Width: 936
VWidth: 0
Flags: HMW
LayerCount: 3
Fore
SplineSet
400 1538 m 1
 558 1342 l 1
 690 1532 l 1
 786 1472 l 1
 616 1206 l 1
 610 1204 600 1204 594 1204 c 0
 570 1204 548 1214 526 1226 c 1
 320 1480 l 1
 400 1538 l 1
EndSplineSet
Refer: 39 111 N 1 0 0 1 0 0 3
EndChar

StartChar: uni01D3
Encoding: 467 467 351
Width: 1376
VWidth: 0
Flags: HMW
LayerCount: 3
Fore
SplineSet
760 1998 m 1
 918 1802 l 1
 1050 1992 l 1
 1146 1932 l 1
 976 1666 l 1
 970 1664 960 1664 954 1664 c 0
 930 1664 908 1674 886 1686 c 1
 680 1940 l 1
 760 1998 l 1
EndSplineSet
Refer: 20 85 N 1 0 0 1 0 0 3
EndChar

StartChar: uni01D4
Encoding: 468 468 352
Width: 1186
VWidth: 0
Flags: HMW
LayerCount: 3
Fore
SplineSet
216 1538 m 1
 374 1342 l 1
 506 1532 l 1
 602 1472 l 1
 432 1206 l 1
 426 1204 416 1204 410 1204 c 0
 386 1204 364 1214 342 1226 c 1
 136 1480 l 1
 216 1538 l 1
EndSplineSet
Refer: 45 117 N 1 0 0 1 0 0 3
EndChar

StartChar: uni01D9
Encoding: 473 473 357
Width: 1376
VWidth: 0
Flags: HMW
LayerCount: 3
Fore
SplineSet
790 2378 m 1
 948 2182 l 1
 1080 2372 l 1
 1176 2312 l 1
 1006 2046 l 1
 1000 2044 990 2044 984 2044 c 0
 960 2044 938 2054 916 2066 c 1
 710 2320 l 1
 790 2378 l 1
EndSplineSet
Refer: 220 220 N 1 0 0 1 0 0 3
EndChar

StartChar: uni01DA
Encoding: 474 474 358
Width: 1186
VWidth: 0
Flags: HMW
LayerCount: 3
Fore
SplineSet
246 1918 m 1
 404 1722 l 1
 536 1912 l 1
 632 1852 l 1
 462 1586 l 1
 456 1584 446 1584 440 1584 c 0
 416 1584 394 1594 372 1606 c 1
 166 1860 l 1
 246 1918 l 1
EndSplineSet
Refer: 251 252 N 1 0 0 1 0 0 3
EndChar

StartChar: Gcaron
Encoding: 486 486 363
Width: 1298
VWidth: 0
Flags: HMW
LayerCount: 3
Fore
SplineSet
782 1998 m 1
 940 1802 l 1
 1072 1992 l 1
 1168 1932 l 1
 998 1666 l 1
 992 1664 982 1664 976 1664 c 0
 952 1664 930 1674 908 1686 c 1
 702 1940 l 1
 782 1998 l 1
EndSplineSet
Refer: 6 71 N 1 0 0 1 0 0 3
EndChar

StartChar: gcaron
Encoding: 487 487 364
Width: 986
VWidth: 0
Flags: HMW
LayerCount: 3
Fore
SplineSet
434 1538 m 1
 592 1342 l 1
 724 1532 l 1
 820 1472 l 1
 650 1206 l 1
 644 1204 634 1204 628 1204 c 0
 604 1204 582 1214 560 1226 c 1
 354 1480 l 1
 434 1538 l 1
EndSplineSet
Refer: 32 103 N 1 0 0 1 0 0 3
EndChar

StartChar: uni01E8
Encoding: 488 488 365
Width: 1236
VWidth: 0
Flags: HMW
LayerCount: 3
Fore
SplineSet
668 1998 m 1
 826 1802 l 1
 958 1992 l 1
 1054 1932 l 1
 884 1666 l 1
 878 1664 868 1664 862 1664 c 0
 838 1664 816 1674 794 1686 c 1
 588 1940 l 1
 668 1998 l 1
EndSplineSet
Refer: 10 75 N 1 0 0 1 0 0 3
EndChar

StartChar: uni01E9
Encoding: 489 489 366
Width: 1062
VWidth: 0
Flags: HMW
LayerCount: 3
Fore
SplineSet
294 1982 m 1
 452 1786 l 1
 584 1976 l 1
 680 1916 l 1
 510 1650 l 1
 504 1648 494 1648 488 1648 c 0
 464 1648 442 1658 420 1670 c 1
 214 1924 l 1
 294 1982 l 1
EndSplineSet
Refer: 53 107 N 1 0 0 1 0 0 3
EndChar

StartChar: uni01F0
Encoding: 496 496 367
Width: 592
VWidth: 0
Flags: HMW
LayerCount: 3
Fore
SplineSet
276 2032 m 1
 434 1836 l 1
 566 2026 l 1
 662 1966 l 1
 492 1700 l 1
 486 1698 476 1698 470 1698 c 0
 446 1698 424 1708 402 1720 c 1
 196 1974 l 1
 276 2032 l 1
EndSplineSet
Refer: 35 106 N 1 0 0 1 0 0 3
EndChar

StartChar: uni021E
Encoding: 542 542 378
Width: 1426
VWidth: 0
Flags: HMW
LayerCount: 3
Fore
SplineSet
784 1998 m 1
 942 1802 l 1
 1074 1992 l 1
 1170 1932 l 1
 1000 1666 l 1
 994 1664 984 1664 978 1664 c 0
 954 1664 932 1674 910 1686 c 1
 704 1940 l 1
 784 1998 l 1
EndSplineSet
Refer: 7 72 N 1 0 0 1 0 0 3
EndChar

StartChar: uni021F
Encoding: 543 543 379
Width: 1104
VWidth: 0
Flags: HMW
LayerCount: 3
Fore
SplineSet
428 1982 m 1
 586 1786 l 1
 718 1976 l 1
 814 1916 l 1
 644 1650 l 1
 638 1648 628 1648 622 1648 c 0
 598 1648 576 1658 554 1670 c 1
 348 1924 l 1
 428 1982 l 1
EndSplineSet
Refer: 33 104 N 1 0 0 1 0 0 3
EndChar

StartChar: dotaccent
Encoding: 729 729 394
Width: 694
VWidth: 0
Flags: HMW
LayerCount: 3
Fore
SplineSet
356 1578 m 0
 436 1578 504 1518 504 1440 c 0
 504 1358 436 1292 356 1292 c 0
 276 1292 212 1360 212 1442 c 0
 212 1520 280 1578 356 1578 c 0
EndSplineSet
EndChar

StartChar: notequal
Encoding: 8800 8800 398
Width: 830
VWidth: 0
Flags: HMW
LayerCount: 3
Fore
SplineSet
608 962 m 1
 768 966 l 1
 656 804 l 1
 750 804 l 1
 736 676 l 1
 566 676 l 1
 452 514 l 1
 746 514 l 1
 732 386 l 1
 364 386 l 1
 204 160 l 1
 48 156 l 1
 208 386 l 1
 68 386 l 1
 82 514 l 1
 298 514 l 1
 410 676 l 1
 72 676 l 1
 86 804 l 1
 500 804 l 1
 608 962 l 1
EndSplineSet
EndChar

StartChar: fish
Encoding: 65521 65521 399
Width: 3448
VWidth: 0
LigCaretCntFixed: 1
Flags: HMW
LayerCount: 3
Back
SplineSet
2362 1396 m 4x847d80
 2480 1398 2529 1416.96 2628 1436 c 4
 2680 1446 2729.26 1484.17 2729.26 1504.74 c 7
 2729.26 1519.45 2712.88 1530 2682 1530 c 7
 2629.38 1530 2596 1254 2596 1116 c 14
 2596 1030 l 21x84fd80
 2576 902 l 5x84fb80
 2590 902 l 5
 2690 1014 2810 1092 2946 1092 c 4
 3114 1092 3240 1020 3240 726 c 6
 3240 138 l 5
 3416 96 l 5
 3402 0 l 5
 2858 0 l 5
 2872 90 l 5
 3036 138 l 5
 3040 694 l 6
 3040 696 3040 700 3040 702 c 4
 3040 874 2926 926 2830 926 c 4
 2760 926 2682 906 2596 818 c 5
 2596 140 l 5
 2774 98 l 5
 2760 0 l 5
 2196 0 l 5
 2210 96 l 5x60fd80
 2396 140 l 5
 2396 944 l 6
 2403.98 1249.11 2510 1578 2700 1578 c 7
 2780.82 1578 2825.16 1551 2825.16 1516.4 c 7
 2825.16 1474.67 2714 1420 2618 1392 c 4
 2510.3 1360.59 2404 1344 2340 1338 c 4
 2233.58 1328.02 2129.62 1352.35 2072 1260 c 28
 1990.01 1128.6 2082 1008 2044.16 863.854 c 4
 2035 828.942 1982.07 772.734 1908 766 c 5
 1880 872 1826 986 1730 986 c 4
 1615.98 986 1580 910 1580 848 c 4
 1580 622 2096 596 2096 316 c 4
 2096 85.7656 1920 -42 1734 -42 c 4x84fd80
 1579.06 -42 1448 12 1408 126 c 5
 1372 58 1267.99 2.48633 1160 2 c 6
 716 0 l 5
 730 96 l 5
 902 140 l 5
 902 892 l 5
 698 958 l 5
 448 960 l 5x507d80
 448 140 l 5
 628 98 l 5
 614 0 l 5
 48 0 l 5
 62 96 l 5
 246 140 l 5
 246 960 l 5
 66 960 l 5
 76 1042 l 5
 248 1086 l 5
 270 1344 484 1580 668 1580 c 4x497d80
 818.756 1580 877.816 1541.52 988 1541.52 c 4x027d80
 1026.92 1541.52 1066.23 1547.64 1108 1562 c 5
 1130 1528 1148 1477.11 1148 1434 c 4x017d80
 1148 1343.97 1084.87 1286 1002 1286 c 4x027d80
 857.652 1286 744.368 1434 608 1434 c 4
 503.828 1434 448 1312 448 1166 c 6
 448 1068 l 5x117d80
 686 1067.19 l 6
 754.026 1067.01 990 1074 1074 1080 c 5
 1104 1050 l 5
 1104 140 l 5
 1134 134 l 6
 1205.92 119.615 1333.12 151.601 1388 208 c 4
 1460 282 1490.42 304.702 1554 310 c 5
 1564 228 1606 68 1734 68 c 4
 1852.27 68 1924 123.924 1924 228 c 4
 1924 430 1422 446 1422 770 c 4
 1422 930 1566 1092 1744 1092 c 4
 1888 1092 2001.6 1027.32 2030 948 c 5
 2006 1106 1904.71 1204.21 1992 1322 c 28
 2079.62 1440.23 2214.86 1393.51 2362 1396 c 4x847d80
EndSplineSet
Fore
SplineSet
2600 1426 m 1
 2608 1428 2618 1432 2628 1434 c 0
 2678 1448 2730 1464 2730 1502 c 0
 2730 1518 2712 1528 2682 1528 c 0
 2638 1528 2608 1510 2600 1426 c 1
2192 1406 m 0
 2246 1406 2306 1402 2374 1402 c 0
 2384 1402 2394 1402 2404 1402 c 1
 2434 1558 2540 1576 2700 1576 c 0
 2780 1576 2868 1554 2868 1486 c 0
 2868 1436 2714 1396 2616 1374 c 1
 2596 1370 l 1
 2596 1362 l 1
 2596 1028 l 1
 2576 900 l 1
 2590 900 l 1
 2690 1012 2810 1090 2946 1090 c 0
 3114 1090 3240 1018 3240 724 c 2
 3240 136 l 1
 3416 94 l 1
 3402 -2 l 1
 2858 -2 l 1
 2872 88 l 1
 3036 136 l 1
 3040 692 l 2
 3040 694 3040 698 3040 700 c 0
 3040 872 2926 924 2830 924 c 0
 2760 924 2682 904 2596 816 c 1
 2596 138 l 1
 2774 96 l 1
 2760 -2 l 1
 2196 -2 l 1
 2210 94 l 1
 2396 138 l 1
 2396 1298 l 2
 2396 1314 2396 1328 2398 1340 c 1
 2170 1320 2038 1338 2038 1130 c 0
 2038 1064 2054 996 2054 936 c 0
 2054 800 1960 776 1908 764 c 1
 1880 870 1826 984 1730 984 c 0
 1616 984 1580 908 1580 846 c 0
 1580 620 2096 594 2096 314 c 0
 2096 84 1920 -44 1734 -44 c 0
 1580 -44 1424 40 1394 166 c 1
 1370 106 1276 -2 1012 -2 c 2
 716 -2 l 1
 730 94 l 1
 902 138 l 1
 902 890 l 1
 698 956 l 1
 448 958 l 1
 448 138 l 1
 628 96 l 1
 614 -2 l 1
 48 -2 l 1
 62 94 l 1
 246 138 l 1
 246 958 l 1
 66 958 l 1
 76 1040 l 1
 248 1084 l 1
 270 1342 484 1578 668 1578 c 0
 818 1578 878 1540 988 1540 c 0
 1026 1540 1066 1546 1108 1560 c 1
 1130 1526 1148 1476 1148 1432 c 0
 1148 1342 1084 1284 1002 1284 c 0
 858 1284 744 1432 608 1432 c 0
 504 1432 448 1310 448 1164 c 2
 448 1066 l 1
 686 1066 l 2
 754 1066 990 1072 1074 1078 c 1
 1104 1048 l 1
 1104 138 l 1
 1134 132 l 2
 1146 130 1158 128 1172 128 c 0
 1244 128 1342 158 1388 206 c 0
 1460 280 1490 302 1554 308 c 1
 1564 226 1606 66 1734 66 c 0
 1852 66 1924 122 1924 226 c 0
 1924 428 1422 444 1422 768 c 0
 1422 928 1566 1090 1744 1090 c 0
 1888 1090 2002 1026 2030 946 c 1
 2010 1054 1956 1134 1956 1218 c 0
 1956 1314 2022 1406 2192 1406 c 0
EndSplineSet
Ligature2: "'liga' Standard Ligatures in Latin lookup 0-1" f i s h
Ligature2: "'liga' Standard Ligatures in Latin lookup 0-1" uniF001 s h
LCarets2: 3 678 1332 2136 
EndChar

StartChar: quoteright
Encoding: 8217 8217 400
Width: 460
VWidth: 0
Flags: HMW
LayerCount: 3
Fore
SplineSet
20 1068 m 1
 144 1144 188 1252 188 1328 c 0
 188 1402 156 1462 134 1478 c 1
 190 1532 240 1550 288 1550 c 0
 372 1550 430 1478 430 1382 c 0
 430 1266 338 1072 58 988 c 1
 20 1068 l 1
EndSplineSet
EndChar

StartChar: quoteleft
Encoding: 8216 8216 401
Width: 460
VWidth: 0
Flags: HMW
LayerCount: 3
Fore
SplineSet
440 1476 m 1
 316 1400 272 1292 272 1216 c 0
 272 1142 304 1082 326 1066 c 1
 270 1012 220 994 172 994 c 0
 88 994 30 1066 30 1162 c 0
 30 1278 122 1472 402 1556 c 1
 440 1476 l 1
EndSplineSet
EndChar

StartChar: quotesinglbase
Encoding: 8218 8218 402
Width: 460
VWidth: 0
Flags: HMW
LayerCount: 3
Fore
SplineSet
30 -214 m 1
 154 -138 198 -30 198 48 c 0
 198 120 166 180 144 198 c 1
 200 250 250 268 298 268 c 0
 382 268 440 198 440 100 c 0
 440 -14 348 -210 68 -294 c 1
 30 -214 l 1
EndSplineSet
EndChar

StartChar: quotereversed
Encoding: 8219 8219 403
Width: 450
VWidth: 0
Flags: HMW
LayerCount: 3
Fore
SplineSet
420 1068 m 1
 382 988 l 1
 102 1072 10 1266 10 1382 c 0
 10 1478 68 1550 152 1550 c 0
 200 1550 250 1532 306 1478 c 1
 284 1462 252 1402 252 1328 c 0
 252 1252 296 1144 420 1068 c 1
EndSplineSet
EndChar

StartChar: quotedblleft
Encoding: 8220 8220 404
Width: 768
VWidth: 0
Flags: HMW
LayerCount: 3
Fore
SplineSet
440 1476 m 1
 316 1400 272 1292 272 1216 c 0
 272 1142 304 1082 326 1066 c 1
 270 1012 220 994 172 994 c 0
 88 994 30 1066 30 1162 c 0
 30 1278 122 1472 402 1556 c 1
 440 1476 l 1
748 1476 m 1
 624 1400 580 1292 580 1216 c 0
 580 1142 612 1082 634 1066 c 1
 578 1012 528 994 480 994 c 0
 396 994 338 1066 338 1162 c 0
 338 1278 430 1472 710 1556 c 1
 748 1476 l 1
EndSplineSet
EndChar

StartChar: quotedblright
Encoding: 8221 8221 405
Width: 768
VWidth: 0
Flags: HMW
LayerCount: 3
Back
SplineSet
20 1068 m 21
 144 1144 188 1252 188 1328 c 7
 188 1402 156 1462 134 1478 c 5
 190 1532 240 1550 288 1550 c 7
 372 1550 430 1478 430 1382 c 7
 430 1266 338 1072 58 988 c 13
 20 1068 l 21
EndSplineSet
Fore
SplineSet
328 1070 m 1
 452 1146 496 1254 496 1330 c 0
 496 1404 464 1464 442 1480 c 1
 498 1534 548 1552 596 1552 c 0
 680 1552 738 1480 738 1384 c 0
 738 1268 646 1074 366 990 c 1
 328 1070 l 1
20 1070 m 1
 144 1146 188 1254 188 1330 c 0
 188 1404 156 1464 134 1480 c 1
 190 1534 240 1552 288 1552 c 0
 372 1552 430 1480 430 1384 c 0
 430 1268 338 1074 58 990 c 1
 20 1070 l 1
EndSplineSet
EndChar

StartChar: thorn
Encoding: 254 254 406
Width: 1218
VWidth: 0
Flags: HMW
LayerCount: 3
Fore
SplineSet
216 1342 m 1
 32 1406 l 1
 48 1498 l 1
 390 1524 l 1
 420 1496 l 1
 420 1028 l 1
 402 902 l 1
 416 902 l 1
 488 982 582 1086 742 1086 c 0
 948 1086 1114 898 1114 568 c 0
 1114 230 894 -16 612 -16 c 0
 572 -16 530 -12 490 2 c 1
 486 24 482 52 482 80 c 0
 482 90 484 114 486 124 c 1
 522 116 558 112 592 112 c 0
 846 112 886 316 886 494 c 0
 886 782 808 928 656 928 c 0
 552 928 470 874 416 818 c 1
 416 -304 l 1
 604 -346 l 1
 590 -444 l 1
 24 -444 l 1
 34 -348 l 1
 218 -304 l 1
 216 1342 l 1
EndSplineSet
EndChar

StartChar: Thorn
Encoding: 222 222 407
Width: 1232
VWidth: 0
Flags: HMW
LayerCount: 3
Fore
SplineSet
244 144 m 1
 244 1364 l 1
 24 1414 l 1
 36 1506 l 1
 694 1506 l 1
 682 1414 l 1
 476 1368 l 1
 476 1236 l 1
 526 1238 576 1240 626 1240 c 0
 942 1240 1232 1154 1232 800 c 0
 1232 512 988 314 694 314 c 0
 650 314 604 316 554 322 c 1
 544 352 534 376 534 424 c 1
 556 422 576 424 596 424 c 0
 856 424 982 540 982 756 c 0
 982 962 868 1122 604 1122 c 0
 554 1122 476 1114 476 1114 c 1
 476 146 l 1
 762 100 l 1
 746 -2 l 1
 28 -2 l 1
 40 88 l 1
 244 144 l 1
EndSplineSet
EndChar

StartChar: eth
Encoding: 240 240 408
Width: 1156
VWidth: 0
Flags: HMW
LayerCount: 3
Back
SplineSet
332 604 m 5
 336 274 454 86 622 86 c 4
 810 86 862 254 862 514 c 4
 862 828 746 1036 576 1036 c 4
 400 1036 332 864 332 604 c 5
1076 564 m 4
 1076 190 854 -32 594 -32 c 4
 258 -32 120 252 120 546 c 4
 120 904 336 1148 616 1148 c 4
 664.966 1148 710.26 1142.38 751.768 1131.33 c 5
 690.376 1295 621.374 1405.39 594 1450 c 5
 678 1520 l 5
 740 1462 1076 1188 1076 564 c 4
EndSplineSet
Fore
SplineSet
316 604 m 1
 320 274 438 86 606 86 c 0
 794 86 846 254 846 514 c 0
 846 798 700 1032 560 1036 c 0
 384 1042 316 864 316 604 c 1
1056 564 m 0
 1056 190 838 -32 578 -32 c 0
 242 -32 100 252 100 546 c 0
 100 904 318 1148 576 1148 c 0
 624 1148 730 1128 764 1038 c 1
 772 1040 l 1
 746 1126 690 1212 638 1298 c 1
 378 1248 l 1
 390 1340 l 1
 594 1380 l 1
 538 1460 476 1530 424 1578 c 1
 566 1578 l 1
 606 1554 676 1502 750 1418 c 1
 932 1454 l 1
 920 1362 l 1
 814 1340 l 1
 940 1172 1056 918 1056 564 c 0
EndSplineSet
EndChar

StartChar: Eth
Encoding: 208 208 409
Width: 1600
VWidth: 0
Flags: HMW
LayerCount: 3
Fore
SplineSet
478 704 m 1
 478 126 l 1
 734 126 l 2
 1132 126 1300 414 1300 724 c 0
 1300 1096 1078 1402 626 1402 c 0
 576 1402 528 1400 478 1394 c 1
 478 814 l 1
 790 840 l 1
 776 728 l 1
 478 704 l 1
1560 798 m 0
 1560 404 1240 0 642 0 c 2
 22 0 l 1
 38 90 l 1
 246 156 l 1
 246 690 l 1
 28 672 l 1
 42 784 l 1
 246 800 l 1
 246 1338 l 1
 38 1374 l 1
 48 1466 l 1
 286 1504 494 1526 670 1526 c 0
 1350 1526 1560 1172 1560 798 c 0
EndSplineSet
EndChar

StartChar: ae
Encoding: 230 230 410
Width: 1528
VWidth: 0
Flags: HMW
LayerCount: 3
Fore
SplineSet
694 212 m 1
 636 82 490 -30 318 -30 c 0
 190 -30 80 42 80 190 c 0
 80 368 200 506 638 586 c 1
 638 654 l 2
 638 818 598 970 438 970 c 0
 322 970 314 886 296 736 c 1
 232 736 130 742 130 862 c 0
 130 994 368 1092 536 1092 c 0
 672 1092 746 1042 780 940 c 1
 876 1036 1000 1088 1116 1088 c 0
 1292 1088 1440 960 1440 704 c 0
 1440 666 1428 582 1418 540 c 1
 836 516 l 1
 846 326 946 104 1172 104 c 0
 1258 104 1322 120 1448 188 c 1
 1472 126 l 1
 1376 26 1234 -36 1074 -36 c 0
 936 -36 798 32 710 168 c 0
 704 178 698 194 694 212 c 1
836 614 m 1
 1216 658 l 1
 1222 678 1226 724 1226 744 c 0
 1226 888 1172 970 1056 970 c 0
 958 970 848 850 836 614 c 1
638 496 m 1
 334 448 292 362 292 246 c 0
 292 148 340 102 428 102 c 0
 526 102 638 192 638 294 c 2
 638 496 l 1
EndSplineSet
EndChar

StartChar: AE
Encoding: 198 198 411
Width: 2050
VWidth: 0
Flags: HMW
LayerCount: 3
Fore
SplineSet
1048 572 m 1
 612 572 l 1
 350 152 l 1
 576 100 l 1
 562 2 l 1
 10 2 l 1
 22 92 l 1
 186 158 l 1
 1050 1506 l 1
 1990 1506 l 1
 1952 1124 l 1
 1848 1140 l 1
 1798 1396 l 1
 1268 1396 l 1
 1268 824 l 1
 1580 824 l 1
 1632 972 l 1
 1746 980 l 1
 1706 514 l 1
 1602 496 l 1
 1562 710 l 1
 1268 710 l 1
 1268 116 l 1
 1830 116 l 1
 1950 398 l 1
 2048 380 l 1
 2012 0 l 1
 1434 0 l 1
 900 0 l 1
 836 0 l 1
 846 90 l 1
 1044 146 l 1
 1048 146 l 1
 1048 572 l 1
1050 1282 m 1
 676 688 l 1
 1048 688 l 1
 1050 1282 l 1
EndSplineSet
EndChar

StartChar: dotlessi
Encoding: 305 305 412
Width: 694
VWidth: 0
Flags: HMW
LayerCount: 3
Fore
SplineSet
74 96 m 1
 258 140 l 1
 258 894 l 1
 74 960 l 1
 90 1052 l 1
 430 1080 l 1
 460 1050 l 1
 460 140 l 1
 654 98 l 1
 640 0 l 1
 60 0 l 1
 74 96 l 1
EndSplineSet
EndChar

StartChar: divide
Encoding: 247 247 414
Width: 826
VWidth: 0
Flags: HMW
LayerCount: 3
Fore
SplineSet
48 732 m 1
 792 732 l 1
 778 604 l 1
 34 604 l 1
 48 732 l 1
404 466 m 0
 484 466 550 406 550 328 c 0
 550 246 484 180 404 180 c 0
 324 180 260 248 260 330 c 0
 260 408 326 466 404 466 c 0
404 1148 m 0
 484 1148 550 1088 550 1010 c 0
 550 928 484 862 404 862 c 0
 324 862 260 930 260 1012 c 0
 260 1090 326 1148 404 1148 c 0
EndSplineSet
EndChar

StartChar: multiply
Encoding: 215 215 415
Width: 690
VWidth: 0
Flags: HMW
LayerCount: 3
Back
SplineSet
410 496 m 5
 412 250 l 5
 278 264 l 5
 278 496 l 5
 50 496 l 5
 64 618 l 5
 278 618 l 5
 278 858 l 5
 408 844 l 5
 410 618 l 5
 636 618 l 5
 622 496 l 5
 410 496 l 5
EndSplineSet
Fore
SplineSet
344 470 m 1
 144 276 l 1
 64 376 l 1
 252 560 l 1
 64 750 l 1
 164 830 l 1
 350 644 l 1
 550 838 l 1
 630 736 l 1
 440 554 l 1
 632 360 l 1
 532 280 l 1
 344 470 l 1
EndSplineSet
EndChar

StartChar: Oslash
Encoding: 216 216 416
Width: 1616
VWidth: 0
Flags: HMW
LayerCount: 3
Fore
SplineSet
1156 1234 m 1
 496 246 l 1
 574 154 686 96 834 96 c 0
 1202 96 1308 396 1308 694 c 0
 1308 888 1260 1092 1156 1234 c 1
800 1424 m 0
 436 1424 328 1136 328 820 c 0
 328 668 352 512 410 384 c 1
 1046 1344 l 1
 978 1394 896 1424 800 1424 c 0
1574 750 m 0
 1574 332 1278 -32 774 -32 c 0
 626 -32 492 10 382 86 c 1
 286 -58 l 1
 100 -68 l 1
 268 186 l 1
 136 328 60 526 60 750 c 0
 60 1216 376 1542 858 1542 c 0
 962 1542 1060 1520 1144 1482 c 1
 1204 1566 l 1
 1394 1576 l 1
 1274 1404 l 1
 1464 1260 1574 1016 1574 750 c 0
EndSplineSet
EndChar

StartChar: oslash
Encoding: 248 248 417
Width: 1160
VWidth: 0
Flags: HMW
LayerCount: 3
Fore
SplineSet
768 822 m 1
 476 132 l 1
 514 102 556 86 602 86 c 0
 758 86 836 232 836 492 c 0
 836 624 812 738 768 822 c 1
664 942 m 1
 632 960 596 970 558 970 c 0
 408 970 322 836 322 574 c 0
 322 450 342 346 378 264 c 1
 664 942 l 1
1058 534 m 0
 1058 196 854 -32 572 -32 c 0
 508 -32 450 -24 400 -6 c 1
 368 -76 l 1
 212 -86 l 1
 278 64 l 1
 160 162 102 324 102 516 c 0
 102 892 336 1092 602 1092 c 0
 646 1092 688 1088 726 1078 c 1
 754 1142 l 1
 914 1152 l 1
 858 1018 l 1
 990 926 1058 754 1058 534 c 0
EndSplineSet
EndChar
